<?xml version="1.0" standalone="no"?>
<!DOCTYPE svg PUBLIC "-//W3C//DTD SVG 20010904//EN"
 "http://www.w3.org/TR/2001/REC-SVG-20010904/DTD/svg10.dtd">
<svg version="1.0" xmlns="http://www.w3.org/2000/svg"
 width="700.000000pt" height="700.000000pt" viewBox="0 0 700.000000 700.000000"
 preserveAspectRatio="xMidYMid meet">
<metadata>
Created by potrace 1.14, written by Peter Selinger 2001-2017
</metadata>
<g transform="translate(0.000000,700.000000) scale(0.100000,-0.100000)"
fill="#000000" stroke="none">
<path d="M2359 6972 c-47 -30 -94 -80 -103 -109 -3 -10 -18 -26 -33 -35 -16
-10 -35 -22 -43 -27 -38 -25 -86 -41 -120 -41 -26 0 -43 -7 -59 -24 -13 -13
-38 -27 -57 -31 -19 -3 -51 -20 -71 -38 -20 -18 -64 -50 -97 -72 -42 -27 -60
-46 -58 -58 2 -11 -7 -21 -24 -27 -50 -19 -109 -79 -179 -180 -107 -155 -103
-152 -181 -169 l-68 -16 -13 -63 c-11 -53 -21 -73 -59 -115 -47 -52 -94 -137
-94 -170 0 -28 -58 -160 -78 -177 -40 -34 -227 -299 -248 -351 -55 -135 -82
-289 -105 -599 -5 -69 -12 -150 -15 -180 -4 -40 1 -90 20 -183 29 -141 55
-207 108 -282 54 -76 122 -194 142 -250 10 -27 38 -86 62 -130 53 -100 83
-182 128 -358 20 -77 42 -152 50 -168 11 -22 12 -37 4 -66 -7 -27 -6 -62 6
-137 9 -56 32 -245 50 -421 25 -233 39 -334 54 -370 10 -27 22 -72 26 -100 39
-283 58 -371 92 -426 18 -31 52 -107 74 -168 22 -62 53 -131 69 -154 48 -71
88 -153 101 -209 7 -29 22 -65 32 -79 11 -14 22 -50 25 -80 l5 -54 -44 -21
c-24 -12 -72 -45 -107 -72 -79 -64 -236 -154 -333 -191 -40 -16 -99 -45 -131
-64 -32 -20 -80 -40 -105 -46 -129 -27 -230 -109 -251 -202 -6 -24 -17 -64
-26 -89 -20 -57 -22 -100 -5 -139 l12 -31 117 0 116 0 -33 20 c-22 14 -50 20
-88 20 -49 0 -55 2 -49 18 4 9 11 44 16 78 4 33 14 78 21 100 12 35 17 39 48
40 44 0 107 31 113 55 3 10 28 26 65 39 34 12 69 31 78 41 9 11 25 19 35 19
27 0 49 11 49 24 0 7 12 18 28 25 l27 11 -23 -19 c-25 -21 -14 -38 15 -22 10
5 26 12 36 15 13 4 16 12 11 31 -7 27 0 30 64 26 18 -2 40 3 49 10 14 12 13
14 -8 20 -23 6 -22 7 9 14 19 4 36 14 39 22 4 10 14 12 34 8 21 -5 31 -2 35 9
4 11 13 14 30 10 15 -4 24 -2 24 5 0 6 -7 11 -16 11 -13 0 -11 4 7 19 13 10
34 21 45 25 24 7 63 46 46 46 -6 0 -14 -4 -17 -10 -3 -5 -11 -10 -17 -10 -25
0 20 33 87 64 40 18 79 44 88 57 21 29 23 63 3 56 -17 -7 -26 13 -26 58 0 19
-9 58 -21 87 -11 29 -29 78 -38 109 -16 51 -17 56 -2 55 9 0 22 -9 29 -18 17
-23 28 -23 35 2 13 49 67 5 67 -55 0 -13 5 -27 10 -30 6 -3 10 -17 10 -29 0
-13 7 -29 15 -36 8 -7 15 -17 15 -22 0 -6 -21 9 -46 32 -53 48 -70 43 -50 -15
11 -33 19 -41 43 -43 35 -4 90 -74 109 -140 20 -64 17 -71 -11 -32 -14 19 -25
31 -25 28 0 -17 35 -85 65 -126 30 -42 60 -102 52 -102 -2 0 -21 25 -43 55
-21 30 -45 55 -51 55 -7 0 -13 7 -13 15 0 8 -5 15 -11 15 -6 0 -9 -9 -6 -20 4
-17 0 -20 -25 -20 -23 0 -29 -4 -24 -16 3 -9 6 -20 6 -24 0 -12 96 -111 128
-132 14 -9 36 -15 47 -12 11 3 34 0 49 -6 41 -15 55 1 58 72 l3 60 -57 61
c-32 34 -58 69 -58 77 0 9 -5 21 -12 28 -9 9 -8 15 4 24 9 7 21 37 28 66 7 28
14 52 17 52 18 0 93 -58 93 -71 0 -8 11 -26 26 -39 21 -21 27 -22 34 -10 5 8
10 29 10 47 0 17 4 35 10 38 5 3 10 17 10 29 0 40 66 43 231 12 9 -2 23 0 30
5 11 6 10 11 -2 26 -22 25 -30 51 -19 58 16 10 12 25 -6 25 -9 0 -29 14 -45
32 -21 21 -33 28 -40 21 -8 -8 -7 -13 0 -17 6 -4 11 -13 11 -20 0 -17 -100
-10 -157 10 -24 9 -53 12 -65 9 -39 -12 -99 -57 -94 -72 3 -7 -1 -13 -10 -13
-13 0 -15 7 -9 36 9 49 24 72 57 83 27 10 39 31 17 31 -17 0 -53 -22 -62 -37
-5 -8 -20 -19 -34 -24 -32 -12 -43 1 -43 49 l0 32 -77 -2 c-68 -3 -85 0 -133
25 -30 15 -71 41 -90 59 -29 26 -35 40 -41 89 -6 54 -25 89 -47 89 -5 0 -15
11 -22 25 -19 35 -34 31 -26 -6 3 -17 6 -44 6 -58 0 -15 18 -55 40 -89 45 -69
52 -87 16 -45 -36 43 -76 129 -76 164 0 39 -50 149 -67 149 -7 0 -13 9 -13 19
0 11 -16 47 -35 81 -37 65 -42 85 -25 95 6 3 10 11 10 16 0 6 -4 7 -10 4 -11
-7 -3 49 11 76 6 11 1 22 -16 37 -24 21 -40 83 -33 136 l3 28 35 -24 c19 -13
36 -34 38 -46 4 -25 42 -32 42 -7 0 19 -69 85 -102 97 -28 10 -68 86 -68 130
0 13 -6 30 -12 38 -7 7 2 3 21 -10 18 -12 37 -35 43 -50 6 -17 19 -31 34 -34
18 -5 32 -22 50 -61 25 -54 37 -65 49 -45 8 14 -41 95 -87 143 -21 22 -36 43
-33 45 3 3 21 -2 40 -11 20 -9 38 -17 40 -17 25 0 -43 97 -73 105 -28 7 -71
-13 -52 -25 18 -11 -5 -23 -30 -15 -20 6 -18 31 4 48 7 6 4 7 -6 3 -33 -10
-19 20 17 40 28 15 35 25 35 47 0 23 -4 28 -16 23 -9 -3 -21 -3 -27 1 -6 4 18
16 53 28 76 25 98 50 74 84 -13 18 -22 21 -43 16 -29 -7 -101 -72 -101 -92 0
-7 -4 -13 -10 -13 -16 0 -12 17 21 81 21 41 30 68 26 87 -3 15 1 38 10 53 14
24 13 29 -9 74 l-25 48 -21 -21 -22 -22 -1 23 c-1 12 -2 35 -3 50 -2 30 8 44
19 27 9 -15 25 -12 25 5 0 8 -6 15 -12 15 -7 0 -2 9 11 19 28 21 24 42 -13 66
-30 20 -43 14 -55 -28 -9 -30 -10 -28 -8 18 2 50 5 53 41 39 16 -6 17 -4 11
16 -5 15 -4 20 4 16 15 -10 26 41 11 59 -6 7 -18 11 -26 8 -9 -3 -14 1 -14 12
0 9 -4 14 -9 11 -9 -6 -47 71 -39 80 4 3 18 -17 33 -45 16 -28 32 -48 36 -45
15 9 9 58 -13 104 -12 25 -20 50 -19 56 0 6 -17 32 -40 57 -22 26 -38 47 -35
47 4 0 43 -25 87 -56 44 -31 82 -54 85 -52 2 3 -1 20 -7 39 -23 66 -93 119
-161 119 -31 0 -34 3 -52 53 -28 80 -30 84 -18 68 5 -7 15 -10 21 -7 15 10 14
71 -3 137 -14 53 -62 159 -76 169 -11 7 -24 53 -22 70 2 12 1 12 -6 2 -6 -9
-24 7 -64 60 -77 102 -85 119 -63 130 14 8 9 15 -35 44 -28 19 -56 34 -62 34
-11 0 -6 -47 8 -85 4 -11 3 -17 -2 -12 -14 13 -44 100 -44 128 0 14 -5 30 -10
35 -6 6 -16 58 -22 117 -11 101 -7 138 11 108 10 -16 31 -6 31 16 0 8 -9 26
-20 40 -24 31 -28 95 -5 87 12 -5 15 2 15 34 0 43 -16 64 -31 41 -5 -8 -9 -9
-9 -3 0 11 32 44 43 44 3 0 9 -22 13 -50 8 -62 24 -66 24 -6 0 54 -8 76 -26
76 -8 0 -14 5 -14 10 0 6 3 9 7 9 33 -5 41 3 46 49 3 26 4 48 3 50 -8 8 -39
-14 -46 -32 -9 -21 -9 -20 -9 2 -1 13 11 44 25 68 20 33 25 53 20 75 -5 24 -3
30 8 26 14 -6 29 21 42 75 6 27 5 28 -25 22 -28 -6 -31 -4 -25 12 4 11 10 24
15 29 4 6 12 30 19 55 16 59 27 72 50 60 10 -6 21 -10 25 -10 3 0 46 55 95
122 85 115 89 123 73 140 -15 17 -15 18 5 18 13 0 22 -6 22 -16 0 -9 6 -14 13
-12 14 5 92 187 102 240 4 21 17 53 29 71 21 31 22 35 7 57 -14 22 -14 24 9
39 47 31 76 62 63 68 -20 8 -15 22 19 54 38 34 58 37 58 7 0 -20 1 -21 20 -3
15 14 20 15 20 4 0 -11 2 -11 10 1 9 13 10 13 10 0 0 -9 12 -1 30 20 36 43 37
49 5 42 -38 -7 -31 16 20 64 25 23 45 50 45 60 0 11 7 27 15 38 13 17 14 15
17 -18 l3 -37 48 66 c35 49 59 72 91 86 24 10 58 36 75 57 43 51 39 47 105 97
33 25 69 45 81 45 12 0 34 9 48 20 16 12 40 20 65 20 43 0 58 13 54 45 -2 14
0 16 6 7 6 -8 18 -11 35 -7 40 10 162 108 165 133 2 11 19 35 38 51 39 34 43
45 14 36 -11 -3 -20 -2 -20 3 0 15 48 32 90 32 22 0 40 3 40 8 0 4 12 13 27
19 24 11 30 10 49 -8 16 -15 31 -20 48 -17 18 4 26 1 26 -8 0 -8 -6 -14 -12
-14 -7 0 -24 -3 -37 -7 -16 -4 -22 -2 -18 4 4 6 0 14 -9 17 -29 11 -29 -4 -1
-32 17 -17 27 -21 27 -12 0 10 4 8 15 -6 14 -18 16 -17 55 24 23 23 38 47 35
52 -3 5 17 12 44 16 30 4 52 12 55 21 5 12 -3 14 -46 8 -38 -4 -49 -3 -38 4
11 8 -40 11 -176 11 l-190 0 -45 -28z m21 -117 c0 -2 -13 -11 -30 -20 -26 -13
-30 -13 -30 -1 0 13 9 17 53 25 4 0 7 -1 7 -4z m-706 -470 c-9 -14 -19 -23
-22 -20 -5 4 26 45 35 45 2 0 -4 -11 -13 -25z m-414 -507 c0 -7 -4 -19 -9 -27
-11 -17 -23 1 -15 23 7 19 24 21 24 4z m-52 -125 c2 -7 -3 -13 -11 -13 -8 0
-22 -10 -30 -22 l-16 -23 6 25 c2 14 7 31 9 38 5 16 36 12 42 -5z m-463 -1073
c3 -5 1 -10 -4 -10 -6 0 -11 5 -11 10 0 6 2 10 4 10 3 0 8 -4 11 -10z m265
-866 c0 -16 1 -16 15 2 17 22 19 7 5 -30 -6 -18 -5 -35 4 -58 8 -18 17 -44 20
-58 l7 -25 -15 25 c-9 14 -23 48 -32 75 -9 28 -23 59 -30 70 -8 11 -14 30 -14
44 l0 24 20 -26 c11 -14 20 -33 20 -43z m193 -519 c-1 -10 3 -29 8 -42 12 -33
2 -29 -16 7 -18 35 -20 63 -2 57 6 -2 11 -12 10 -22z m132 -586 c4 -13 0 -28
-12 -41 -18 -21 -18 -21 2 -14 16 6 18 5 8 -5 -7 -7 -13 -21 -13 -31 0 -10 -4
-18 -10 -18 -5 0 -10 13 -10 29 0 15 -3 50 -7 76 -6 46 -5 47 15 36 11 -6 24
-20 27 -32z m631 -1664 c16 -14 32 -25 36 -25 4 0 5 -7 2 -15 -12 -31 -94 9
-94 47 0 25 22 23 56 -7z"/>
<path d="M2893 6985 c-7 -8 -13 -17 -13 -21 0 -4 57 -4 128 0 70 3 171 7 224
7 79 1 96 3 91 15 -8 21 -412 20 -430 -1z"/>
<path d="M3330 6991 c0 -5 16 -23 36 -39 50 -41 174 -63 387 -68 92 -2 100 -4
126 -28 16 -15 55 -38 87 -51 37 -15 65 -33 74 -50 15 -25 49 -48 120 -80 70
-31 85 -41 88 -60 9 -45 71 -85 134 -85 26 0 41 -10 80 -51 27 -29 50 -50 53
-48 8 9 -18 94 -33 107 -9 6 -11 12 -5 12 15 0 43 -28 43 -43 0 -7 13 -40 29
-73 23 -48 38 -66 72 -85 23 -13 47 -33 53 -44 15 -26 37 -44 57 -45 8 0 26
-19 38 -42 34 -66 69 -110 73 -96 7 20 38 -10 38 -36 -1 -20 -2 -20 -15 4 -8
14 -14 19 -15 13 0 -7 12 -31 28 -52 19 -28 32 -38 45 -35 11 3 17 0 17 -9 0
-8 7 -18 16 -21 26 -10 27 -7 9 20 -20 31 -15 38 23 29 34 -7 82 -47 82 -67
-1 -8 -6 -5 -15 6 -22 29 -28 13 -12 -27 22 -52 57 -86 109 -109 34 -15 49
-28 57 -50 10 -27 9 -30 -8 -25 -28 7 -31 -20 -11 -105 10 -40 18 -64 19 -54
1 18 4 17 30 -8 20 -20 31 -41 33 -65 2 -29 8 -37 26 -39 12 -2 22 -9 22 -16
0 -8 12 -39 26 -70 14 -32 24 -66 21 -77 -3 -10 -1 -21 4 -24 4 -3 5 -13 2
-21 -3 -9 0 -19 6 -24 15 -8 63 -141 55 -149 -9 -9 -33 30 -46 71 -11 37 -21
47 -32 30 -9 -16 16 -102 30 -102 8 0 14 -9 14 -19 0 -11 30 -55 68 -97 40
-47 62 -79 55 -81 -7 -3 -13 -17 -13 -31 0 -19 3 -23 9 -14 16 26 41 -15 41
-67 0 -26 14 -134 30 -239 32 -206 36 -257 20 -267 -15 -9 -12 -36 6 -49 14
-11 13 -23 -10 -126 -14 -63 -27 -144 -28 -180 l-1 -65 -6 50 c-4 37 -11 51
-23 53 -12 2 -18 -3 -18 -14 0 -16 -2 -16 -20 1 -13 12 -20 29 -18 44 4 32 24
38 33 10 7 -21 8 -21 25 -3 23 25 35 64 19 64 -8 0 -9 10 -5 31 5 27 4 30 -16
23 -12 -3 -46 -24 -77 -45 -32 -22 -68 -39 -83 -39 -16 0 -28 2 -28 5 0 6 31
57 40 65 20 19 60 129 60 164 0 30 3 33 43 42 34 7 45 16 59 44 26 53 23 76
-10 83 -18 4 -33 16 -40 33 -13 26 -13 26 23 20 34 -7 35 -6 24 18 -16 35 -58
41 -70 9 -5 -13 -18 -33 -29 -45 -25 -27 -25 -34 0 -83 13 -26 17 -42 10 -49
-16 -16 -32 8 -37 58 -5 41 -7 44 -19 29 -7 -10 -14 -26 -14 -36 0 -34 -20 -6
-20 29 0 44 -20 35 -21 -9 0 -32 0 -32 -10 -7 -6 14 -8 37 -5 53 4 20 1 27 -9
27 -11 0 -15 11 -15 41 0 22 4 38 9 35 5 -3 17 6 26 20 14 22 15 28 4 35 -8 5
-19 7 -26 4 -7 -2 -10 2 -6 11 4 11 8 12 20 3 20 -18 38 3 24 27 -16 28 -56
138 -53 147 2 5 -9 32 -23 61 -21 43 -25 61 -19 97 3 24 13 50 22 56 14 12 13
15 -6 36 -15 16 -20 30 -16 42 5 13 3 16 -7 13 -8 -2 -15 -19 -17 -36 -2 -18
-11 -38 -22 -45 -16 -11 -17 -21 -9 -107 5 -52 13 -111 19 -130 5 -19 14 -54
20 -77 11 -43 24 -54 33 -30 3 6 3 -4 0 -23 -8 -45 -55 -140 -82 -165 -18 -16
-25 -17 -39 -7 -43 31 -79 23 -75 -17 2 -16 -3 -21 -20 -21 -31 0 -34 4 -29
40 3 25 7 28 22 20 15 -8 19 -5 23 17 3 15 1 34 -3 42 -14 29 -30 87 -30 109
0 12 -4 22 -9 22 -5 0 -11 12 -13 27 -2 18 -10 29 -23 32 -23 4 -67 32 -61 38
2 2 13 -1 25 -8 28 -18 34 -8 15 29 -16 33 -60 49 -109 40 -13 -3 -22 -1 -19
4 6 9 -5 14 -61 23 -32 5 -38 4 -27 -6 14 -15 16 -29 4 -29 -5 0 -14 11 -20
25 -15 32 -36 33 -28 2 5 -21 3 -23 -24 -19 -34 5 -41 22 -10 22 21 0 29 30 8
30 -21 1 -109 70 -103 80 9 14 -52 72 -70 68 -9 -2 -15 -6 -13 -9 2 -3 -3 -13
-10 -22 -12 -14 -8 -22 24 -62 21 -25 55 -59 76 -75 21 -17 43 -40 49 -51 10
-19 9 -20 -13 -6 -13 8 -34 18 -48 22 -14 4 -48 29 -77 56 -28 27 -57 49 -64
49 -17 0 -2 -66 29 -125 22 -41 37 -55 82 -77 30 -14 94 -33 142 -42 143 -25
192 -65 79 -66 -30 0 -48 -6 -56 -17 -12 -16 -16 -16 -70 2 -42 15 -61 27 -72
48 -8 16 -20 27 -26 24 -19 -6 -21 -72 -3 -87 18 -14 20 -43 6 -71 -9 -16 -7
-19 8 -19 10 0 33 -11 52 -25 19 -14 41 -25 50 -25 9 0 58 -20 108 -45 71 -34
92 -49 92 -65 0 -24 -13 -26 -30 -5 -26 32 -100 57 -100 34 0 -5 -5 -7 -10 -4
-6 4 -8 11 -5 16 3 5 -1 6 -10 3 -9 -4 -21 0 -28 9 -7 9 -25 17 -42 19 -16 2
-28 5 -26 8 8 9 -20 50 -34 50 -8 0 -22 -12 -32 -27 -17 -25 -17 -26 7 -42 14
-9 38 -29 55 -44 l30 -28 -52 6 c-61 7 -60 10 -40 -95 l12 -65 43 -5 44 -5
-31 -29 c-17 -17 -31 -37 -31 -45 0 -23 42 -121 52 -121 4 0 8 -10 8 -22 0
-13 13 -57 28 -98 25 -69 30 -75 62 -83 143 -35 165 -46 203 -97 21 -28 43
-62 49 -76 15 -32 58 -30 73 4 6 14 18 22 33 22 23 0 24 3 20 61 -3 54 -2 58
11 40 19 -30 31 -26 31 9 0 32 -32 104 -51 115 -5 4 -16 0 -22 -9 -7 -9 -16
-12 -22 -8 -18 13 -36 52 -29 64 9 14 -15 28 -47 28 -17 0 -32 9 -42 24 -15
23 -15 24 3 19 11 -3 20 -9 20 -14 0 -5 7 -9 15 -9 19 0 19 17 1 27 -22 12
-96 119 -96 138 0 26 21 5 91 -87 58 -75 114 -128 137 -128 6 0 19 -14 27 -31
16 -29 17 -30 35 -14 25 22 36 95 20 125 -7 13 -14 51 -16 85 -2 34 -11 84
-19 110 -10 33 -11 53 -4 61 5 7 7 24 3 38 -5 19 -2 26 9 26 8 0 18 6 20 13 3
6 6 -28 6 -78 1 -88 23 -253 36 -275 12 -20 22 -124 13 -134 -26 -32 -119
-184 -124 -203 -4 -14 -14 -23 -24 -23 -11 0 -21 -4 -25 -9 -8 -14 15 -25 28
-12 7 7 16 2 30 -22 29 -48 38 -86 31 -139 -5 -38 -11 -48 -25 -48 -11 0 -19
7 -19 18 0 14 -2 15 -10 2 -5 -8 -10 -29 -10 -47 0 -26 -3 -30 -20 -26 -14 4
-20 0 -20 -11 0 -9 -4 -16 -10 -16 -5 0 -7 7 -4 15 4 8 1 15 -4 15 -6 0 -14
-9 -17 -20 -3 -11 -10 -20 -16 -20 -5 0 -15 -15 -23 -34 -8 -18 -19 -37 -25
-40 -6 -4 -11 -14 -11 -23 0 -9 -8 -25 -17 -35 -16 -18 -16 -19 11 -8 15 5 34
17 42 25 8 8 30 17 49 21 25 4 35 11 35 25 0 11 5 19 10 19 6 0 10 -7 10 -15
0 -25 34 -17 48 12 6 15 12 32 12 38 0 6 13 21 30 33 17 13 27 28 24 36 -3 9
3 17 15 21 36 11 81 56 81 79 0 30 25 51 78 67 43 13 53 25 27 35 -18 7 -20
30 -2 37 9 4 9 6 0 6 -7 1 -13 12 -13 25 0 13 -16 44 -35 69 -52 69 -42 102
28 90 l37 -6 0 48 c0 33 4 45 13 43 17 -6 22 -79 5 -89 -22 -14 -2 -20 28 -9
23 9 27 9 17 -1 -7 -7 -13 -26 -13 -42 l0 -29 35 21 c35 20 35 20 25 1 -6 -11
-11 -41 -11 -68 -1 -95 -36 -146 -60 -85 -8 22 -12 24 -19 13 -6 -8 -10 -25
-10 -38 0 -13 -5 -33 -11 -44 -6 -12 -13 -40 -14 -62 -3 -44 -8 -62 -31 -114
-8 -18 -14 -39 -14 -48 0 -8 -7 -17 -15 -20 -8 -4 -15 -18 -15 -34 0 -16 -10
-41 -23 -57 -13 -15 -35 -64 -50 -108 -34 -101 -87 -335 -87 -384 0 -20 -9
-67 -19 -104 -15 -58 -19 -65 -27 -47 -9 20 -11 19 -42 -23 -33 -47 -40 -71
-22 -82 15 -9 40 14 56 50 13 30 13 30 14 -20 0 -28 -4 -55 -10 -61 -5 -5 -11
-50 -12 -99 l-1 -90 -26 55 c-20 44 -26 50 -29 33 -2 -13 6 -36 17 -52 27 -38
26 -43 -5 -35 -20 5 -25 3 -22 -7 3 -8 1 -23 -4 -34 -8 -17 -7 -18 4 -4 23 28
37 12 27 -32 -8 -33 -6 -43 8 -57 15 -15 16 -16 11 0 -4 9 1 23 11 32 17 16
19 15 25 -6 10 -39 7 -140 -4 -133 -6 4 -24 -5 -41 -19 -17 -14 -36 -26 -42
-25 -7 0 -1 8 13 17 44 30 60 51 60 78 0 23 -2 25 -15 14 -11 -9 -36 -11 -82
-7 -46 3 -61 2 -50 -5 10 -5 14 -14 11 -20 -4 -6 -1 -14 6 -18 9 -6 8 -9 -6
-14 -12 -4 -25 -27 -37 -65 -20 -63 -32 -81 -56 -81 -13 1 -12 4 4 16 17 13
18 16 5 24 -21 13 -24 13 -53 -10 -45 -36 -82 -17 -57 30 9 16 8 25 -1 36 -10
13 -14 13 -28 0 -9 -7 -32 -17 -51 -20 l-35 -7 25 20 c30 24 21 36 -25 33 -23
-3 -37 2 -45 15 -9 15 -12 16 -17 3 -3 -8 -28 -37 -55 -65 -26 -27 -46 -56
-43 -63 3 -8 5 -19 5 -26 0 -20 49 -7 61 16 11 20 12 20 28 -6 10 -14 21 -23
24 -19 4 3 7 -14 7 -39 0 -41 4 -50 41 -83 29 -25 44 -33 49 -25 4 6 26 14 49
17 34 5 41 3 41 -11 0 -12 8 -16 30 -14 17 1 30 6 30 11 0 18 27 36 38 25 7
-7 17 2 31 30 11 22 25 43 30 46 5 4 19 25 30 49 11 23 44 65 72 92 44 43 51
46 45 25 -3 -14 -9 -44 -13 -68 -3 -23 -10 -45 -15 -48 -42 -26 -53 -232 -18
-356 11 -40 20 -87 20 -104 0 -17 7 -37 16 -45 13 -11 15 -9 10 17 l-6 29 14
-30 c9 -16 15 -38 16 -47 0 -9 13 -26 29 -37 32 -23 56 -79 66 -153 5 -38 3
-47 -11 -50 -14 -2 -12 -8 12 -35 16 -18 34 -33 41 -33 7 0 10 -6 7 -13 -2 -7
4 -22 16 -32 11 -10 20 -26 20 -36 0 -19 107 -97 190 -139 43 -21 220 -189
220 -209 0 -5 38 -38 85 -72 68 -51 82 -65 68 -70 -14 -6 -6 -12 34 -30 56
-24 73 -47 49 -64 -19 -14 -5 -38 17 -29 12 4 16 2 12 -8 -3 -8 1 -21 10 -28
19 -16 20 -31 0 -24 -23 9 -18 -20 9 -49 13 -14 22 -28 20 -30 -2 -2 5 -12 16
-22 20 -18 20 -18 14 13 -7 35 7 43 35 18 9 -7 47 -34 85 -60 l70 -46 -42 0
c-31 0 -44 -5 -52 -20 -10 -19 -8 -20 68 -20 l80 0 11 44 c6 25 11 50 11 55 0
6 -28 25 -62 42 -111 56 -153 92 -178 156 -27 67 -52 98 -135 161 -33 25 -123
107 -201 182 -105 100 -164 148 -230 187 -130 76 -131 77 -150 141 -41 139
-49 161 -82 232 -20 41 -50 98 -68 125 -37 60 -70 132 -91 200 -18 59 -11 185
12 233 9 16 25 67 36 112 18 70 20 99 14 189 -10 156 -5 316 11 396 8 39 24
145 34 237 18 157 23 175 75 310 60 155 137 323 222 486 29 56 53 115 53 130
0 15 7 52 16 82 15 53 41 233 65 447 16 147 -10 482 -59 733 -14 72 -22 91
-53 125 -32 35 -40 55 -69 175 -35 145 -49 186 -111 323 -23 48 -54 139 -69
203 -31 124 -55 172 -129 261 -26 32 -60 77 -76 101 -23 35 -33 42 -59 42 -35
0 -91 50 -120 106 -19 39 -71 84 -97 84 -13 0 -19 7 -19 22 0 28 -43 90 -84
122 -18 13 -40 42 -51 65 -17 38 -21 41 -56 41 -32 0 -44 7 -71 36 -33 37
-117 84 -150 84 -10 0 -32 20 -50 44 -25 34 -47 50 -91 67 -31 12 -74 38 -95
58 -52 51 -91 76 -140 90 -23 6 -57 25 -76 41 l-34 30 -296 0 c-175 0 -296 -4
-296 -9z m850 -296 c10 -12 10 -15 -4 -15 -9 0 -16 7 -16 15 0 8 2 15 4 15 2
0 9 -7 16 -15z m140 -115 c0 -5 -5 -10 -11 -10 -5 0 -7 5 -4 10 3 6 8 10 11
10 2 0 4 -4 4 -10z m420 -258 c0 -10 -7 -9 -31 5 -31 18 -51 50 -42 66 7 11
73 -53 73 -71z m117 -124 c28 -26 29 -38 5 -38 -15 0 -42 36 -42 55 0 11 15 4
37 -17z m273 -290 c0 -5 -4 -7 -9 -4 -5 4 -11 0 -13 -6 -3 -8 -9 -5 -16 8 -10
19 -9 21 13 16 14 -2 25 -9 25 -14z m110 -206 c-6 -2 -7 -9 -3 -15 4 -7 -1 -6
-10 2 -14 11 -15 17 -6 28 10 11 14 11 20 1 5 -7 4 -15 -1 -16z m-348 -1081
c13 -5 37 -21 53 -36 29 -25 29 -26 5 -19 -14 3 -32 13 -41 20 -10 9 -40 14
-84 14 -42 0 -65 4 -59 9 18 18 93 25 126 12z m95 -103 c-3 -7 -5 -2 -5 12 0
14 2 19 5 13 2 -7 2 -19 0 -25z m395 -233 c3 -14 1 -25 -3 -25 -5 0 -4 -12 1
-26 14 -35 12 -44 -5 -38 -11 5 -15 22 -15 66 0 58 13 72 22 23z m-694 0 c-3
-3 -9 2 -12 12 -6 14 -5 15 5 6 7 -7 10 -15 7 -18z m397 -95 c17 -33 19 -50 6
-50 -9 0 -41 55 -41 72 0 19 20 6 35 -22z m-314 -50 c10 0 19 -7 19 -15 0 -8
9 -15 20 -15 12 0 20 7 20 17 0 9 2 14 5 11 3 -2 9 -57 14 -121 6 -64 15 -125
21 -137 9 -17 8 -20 -9 -20 -11 0 -23 5 -26 10 -3 6 -1 10 5 10 17 0 1 42 -26
67 -18 16 -24 33 -24 63 0 37 -2 41 -22 38 -33 -4 -32 -63 1 -100 14 -15 22
-31 18 -34 -11 -11 -45 38 -63 89 -13 39 -14 53 -4 77 6 16 9 39 5 51 -6 18
-4 21 10 16 9 -4 25 -7 36 -7z m109 -25 c6 -19 15 -35 19 -35 4 0 13 -11 19
-25 25 -55 -16 -17 -47 43 -24 46 -25 52 -12 52 5 0 15 -16 21 -35z m533 -144
c-18 -15 -33 -33 -33 -39 0 -6 -13 -18 -29 -27 -16 -8 -31 -20 -34 -27 -3 -7
-6 -1 -6 15 -1 22 3 27 24 27 15 0 29 8 36 21 14 26 62 69 69 62 3 -3 -10 -17
-27 -32z m152 -163 c-5 -24 -12 -34 -25 -34 -17 0 -17 2 2 39 23 45 32 43 23
-5z m-65 -261 c0 -2 -9 -12 -20 -22 -24 -21 -27 -14 -4 9 15 15 24 20 24 13z
m-849 -1658 c-14 -5 -32 -15 -40 -22 -9 -6 -8 -2 3 11 11 12 29 22 40 21 19 0
19 -1 -3 -10z"/>
<path d="M4800 4060 c0 -5 5 -10 10 -10 6 0 10 5 10 10 0 6 -4 10 -10 10 -5 0
-10 -4 -10 -10z"/>
<path d="M2503 6883 c9 -2 25 -2 35 0 9 3 1 5 -18 5 -19 0 -27 -2 -17 -5z"/>
<path d="M2715 6510 c3 -5 16 -15 28 -21 22 -12 22 -12 3 10 -19 21 -43 30
-31 11z"/>
<path d="M3325 6459 c-8 -13 -10 -12 42 -38 57 -29 59 -27 14 14 -42 38 -47
40 -56 24z"/>
<path d="M2790 6450 c0 -5 5 -10 11 -10 5 0 7 5 4 10 -3 6 -8 10 -11 10 -2 0
-4 -4 -4 -10z"/>
<path d="M2206 6193 c-4 -9 0 -23 8 -32 7 -9 17 -25 20 -36 7 -22 45 -70 50
-64 9 9 16 85 9 94 -5 6 -25 20 -45 32 -32 19 -37 19 -42 6z"/>
<path d="M4727 6203 c-8 -7 11 -33 23 -33 5 0 6 9 3 20 -5 20 -15 25 -26 13z"/>
<path d="M1616 6129 c-35 -37 -42 -69 -17 -69 6 0 8 7 5 15 -4 10 0 15 12 13
11 0 34 0 52 0 26 2 32 6 32 25 0 21 -27 57 -42 57 -2 0 -22 -18 -42 -41z"/>
<path d="M1930 6077 c0 -8 9 -22 20 -32 19 -18 20 -17 20 1 0 20 -17 44 -32
44 -4 0 -8 -6 -8 -13z"/>
<path d="M4520 6054 c0 -8 5 -12 10 -9 6 3 10 10 10 16 0 5 -4 9 -10 9 -5 0
-10 -7 -10 -16z"/>
<path d="M1373 6034 c-7 -7 -9 -15 -5 -17 4 -3 13 1 19 9 7 7 9 15 5 17 -4 3
-13 -1 -19 -9z"/>
<path d="M3240 6040 c0 -5 4 -10 9 -10 6 0 13 5 16 10 3 6 -1 10 -9 10 -9 0
-16 -4 -16 -10z"/>
<path d="M3688 6003 c-9 -10 -19 -28 -22 -40 -12 -37 -45 -71 -77 -78 -23 -5
-30 -11 -26 -25 2 -9 0 -25 -5 -34 -5 -10 -5 -16 0 -16 8 0 24 -96 27 -165 1
-11 5 -29 10 -40 13 -31 67 -95 80 -95 6 0 40 -32 75 -71 73 -82 112 -109 156
-109 31 0 31 1 -44 75 -41 41 -71 75 -67 75 4 0 2 7 -5 15 -6 8 -9 18 -6 24 3
5 -11 16 -33 24 -30 13 -40 23 -45 49 -10 45 -7 325 4 374 10 45 0 62 -22 37z"/>
<path d="M2540 5990 c0 -5 -7 -10 -16 -10 -15 0 -15 -2 0 -25 20 -30 20 -36 0
-61 -15 -19 -15 -19 -5 2 9 18 6 20 -25 20 -22 0 -33 -4 -30 -12 2 -6 -11 -27
-30 -45 -19 -18 -34 -43 -34 -54 0 -12 -9 -30 -19 -39 -11 -10 -17 -25 -14
-37 4 -14 0 -19 -16 -19 -11 0 -21 6 -21 13 -1 7 -6 5 -14 -5 -16 -22 -26 -23
-26 -3 0 29 -29 14 -69 -36 -23 -29 -41 -56 -41 -60 0 -17 37 -9 71 14 59 40
59 40 59 17 0 -13 -12 -27 -31 -38 -52 -29 -123 -75 -145 -94 l-21 -18 19 72
c11 40 22 109 25 153 l5 80 -24 -36 c-12 -20 -29 -34 -35 -32 -8 3 -13 -4 -13
-15 0 -13 -12 -26 -35 -36 -27 -13 -35 -23 -35 -44 0 -15 -9 -38 -20 -52 -27
-35 -27 -112 1 -151 22 -32 59 -38 79 -14 16 20 37 19 48 -1 8 -15 25 -10 138
43 233 109 300 131 336 112 12 -7 44 -11 70 -10 42 2 49 -1 59 -21 7 -16 37
-36 90 -60 43 -20 81 -33 83 -29 3 4 -9 13 -24 20 l-30 12 22 30 c12 16 28 29
35 29 7 0 13 4 13 10 0 16 58 -24 69 -47 6 -12 23 -25 38 -28 15 -4 38 -10 51
-15 30 -13 28 -1 -9 65 -19 34 -28 62 -24 74 4 14 0 21 -14 26 -21 6 -31 33
-31 87 0 31 -4 38 -28 46 -22 7 -32 21 -44 58 -17 56 -45 68 -75 35 -37 -40
-48 -56 -45 -63 3 -12 -13 -9 -26 4 -9 9 -12 8 -12 -4 0 -8 7 -21 15 -28 8 -7
12 -16 9 -21 -9 -15 15 -121 31 -139 8 -9 15 -22 15 -28 0 -23 -33 -12 -67 23
-27 28 -31 36 -20 47 17 16 10 63 -7 48 -9 -7 -22 0 -46 25 -26 27 -29 33 -12
29 15 -4 25 2 38 25 10 17 22 31 27 31 4 0 5 5 2 10 -3 6 -11 10 -16 10 -6 0
-7 -4 -4 -10 4 -6 -8 -10 -29 -10 -24 0 -39 -6 -49 -20 -13 -19 -15 -16 -20
34 -6 58 -39 134 -62 143 -8 3 -15 11 -15 19 0 8 -4 14 -10 14 -5 0 -10 -4
-10 -10z m-61 -170 c-11 -22 -24 -40 -29 -40 -6 0 -10 2 -10 5 0 14 31 64 42
68 7 3 14 6 15 6 0 1 -8 -17 -18 -39z"/>
<path d="M3625 5980 c3 -5 8 -10 11 -10 2 0 4 5 4 10 0 6 -5 10 -11 10 -5 0
-7 -4 -4 -10z"/>
<path d="M1340 5935 c-13 -14 -29 -25 -37 -25 -7 0 -13 -4 -13 -10 0 -28 67 6
73 36 5 29 6 30 -23 -1z"/>
<path d="M1772 5940 c13 -20 28 -27 28 -12 0 10 -22 32 -32 32 -5 0 -3 -9 4
-20z"/>
<path d="M2480 5940 c0 -5 5 -10 10 -10 6 0 10 5 10 10 0 6 -4 10 -10 10 -5 0
-10 -4 -10 -10z"/>
<path d="M3845 5939 c-4 -6 -5 -13 -2 -16 7 -7 27 6 27 18 0 12 -17 12 -25 -2z"/>
<path d="M3171 5898 c-17 -18 -55 -59 -85 -91 l-54 -58 27 -32 c17 -19 30 -48
33 -72 9 -64 39 -118 79 -139 31 -17 38 -18 51 -5 14 12 12 18 -11 48 -41 54
-61 132 -54 215 3 39 11 78 18 86 22 26 46 80 36 80 -5 0 -23 -15 -40 -32z"/>
<path d="M3410 5917 c-14 -7 -45 -28 -69 -45 -24 -18 -49 -32 -56 -32 -12 0
-45 -31 -45 -43 0 -4 7 -7 16 -7 9 0 14 -3 12 -7 -2 -5 -10 -21 -18 -38 -8
-16 -20 -34 -27 -38 -15 -9 -18 -37 -4 -37 5 0 12 6 15 13 6 11 3 -9 -5 -43
-2 -8 3 -15 11 -15 8 0 18 -8 22 -18 9 -22 28 -13 28 14 0 25 26 24 47 -1 10
-11 27 -20 39 -20 13 0 43 -16 68 -35 26 -19 53 -35 60 -35 8 0 29 -12 46 -26
23 -20 34 -24 42 -16 9 9 2 26 -27 67 -21 31 -38 64 -38 73 0 9 -13 34 -30 55
-23 30 -28 44 -23 68 3 17 1 40 -6 52 -6 12 -11 44 -12 71 -1 55 -9 62 -46 43z"/>
<path d="M1790 5898 c0 -7 4 -19 9 -27 11 -17 23 1 15 23 -7 19 -24 21 -24 4z"/>
<path d="M2145 5890 c-3 -5 -1 -10 4 -10 6 0 11 5 11 10 0 6 -2 10 -4 10 -3 0
-8 -4 -11 -10z"/>
<path d="M4196 5879 c-2 -8 -6 -25 -9 -39 -2 -14 -8 -34 -12 -44 -7 -16 -5
-18 8 -13 21 8 22 0 2 -19 -20 -20 -20 -156 -1 -238 11 -45 23 -68 57 -103 75
-76 88 -83 137 -70 39 10 42 14 37 37 -4 14 -13 32 -20 40 -36 39 -52 120 -25
120 5 0 11 8 13 18 3 9 5 0 6 -20 0 -20 5 -39 10 -42 5 -3 7 -14 4 -24 -7 -27
14 -72 34 -72 11 0 33 -24 56 -60 27 -42 46 -62 65 -66 15 -3 37 -10 50 -15
13 -5 28 -7 33 -4 17 11 9 59 -16 104 -25 43 -34 101 -15 101 6 0 11 -6 11
-12 3 -28 5 -34 17 -56 7 -13 15 -33 18 -45 2 -12 8 -23 14 -25 5 -2 10 -9 10
-16 0 -8 9 -25 21 -40 17 -21 18 -26 5 -26 -20 0 -19 0 -1 -37 21 -43 38 -55
154 -114 57 -28 106 -59 108 -68 5 -17 86 -71 107 -71 25 0 46 36 46 79 0 32
-8 52 -32 84 -18 23 -36 44 -40 45 -15 7 -8 20 12 25 11 3 18 2 15 -2 -5 -10
23 -51 36 -51 15 0 10 46 -8 80 -23 39 -120 97 -136 81 -14 -14 -3 -24 50 -41
44 -14 63 -37 41 -52 -18 -12 -127 -1 -152 16 -36 23 -126 112 -126 123 0 6
-11 33 -24 60 -14 27 -27 74 -30 108 -3 39 -2 53 4 40 5 -11 9 -30 9 -41 1
-23 27 -51 38 -40 4 4 0 21 -9 39 -9 18 -19 44 -22 59 -3 15 -13 34 -22 42
-12 13 -14 28 -8 72 9 75 -12 70 -46 -12 -14 -33 -33 -71 -42 -85 -10 -14 -21
-40 -24 -58 -6 -27 -9 -30 -16 -17 -7 12 -4 28 7 52 23 48 30 100 15 109 -6 4
-17 2 -23 -4 -6 -6 -19 -11 -29 -11 -10 0 -18 -7 -18 -17 0 -10 -5 -25 -11
-33 -8 -11 -9 -5 -5 24 4 27 -1 50 -14 77 -11 21 -21 57 -22 80 -1 44 -21 61
-42 38 -11 -13 -35 -84 -50 -152 -4 -15 -11 -25 -16 -22 -5 3 -14 -9 -19 -27
l-9 -33 -1 36 c-1 41 -9 53 -26 39 -17 -14 -52 14 -74 61 -11 21 -15 39 -10
39 5 0 9 7 9 16 0 13 -3 14 -14 5 -19 -16 -26 5 -12 41 8 23 7 31 -6 45 -14
14 -18 14 -22 2z m124 -274 c0 -8 -4 -15 -10 -15 -5 0 -10 7 -10 15 0 8 5 15
10 15 6 0 10 -7 10 -15z m228 -160 c-3 -3 -9 2 -12 12 -6 14 -5 15 5 6 7 -7
10 -15 7 -18z"/>
<path d="M1497 5849 c-15 -17 -27 -33 -27 -36 0 -3 -9 -16 -20 -30 -24 -31
-25 -61 -4 -88 13 -16 17 -17 22 -5 9 24 104 120 119 120 8 0 35 -12 59 -26
25 -15 48 -24 51 -20 11 10 -58 75 -102 96 -55 27 -66 25 -98 -11z"/>
<path d="M2655 5860 c-3 -5 -1 -10 4 -10 6 0 11 5 11 10 0 6 -2 10 -4 10 -3 0
-8 -4 -11 -10z"/>
<path d="M2175 5849 c-10 -15 1 -23 20 -15 9 3 13 10 10 16 -8 13 -22 13 -30
-1z"/>
<path d="M2760 5844 c0 -8 5 -12 10 -9 6 4 8 11 5 16 -9 14 -15 11 -15 -7z"/>
<path d="M3965 5850 c-4 -6 -3 -16 3 -22 6 -6 12 -6 17 2 4 6 3 16 -3 22 -6 6
-12 6 -17 -2z"/>
<path d="M1934 5787 c-23 -30 -46 -73 -53 -101 -7 -27 -19 -62 -27 -77 -18
-36 -18 -88 1 -109 9 -10 18 -40 22 -68 4 -40 10 -52 29 -61 19 -8 28 -6 52
14 27 22 30 23 45 7 16 -15 17 -15 17 2 0 10 -9 20 -19 23 -43 11 -50 162 -14
290 15 56 14 125 -2 129 -5 2 -28 -21 -51 -49z"/>
<path d="M3170 5825 c0 -8 5 -15 10 -15 6 0 10 7 10 15 0 8 -4 15 -10 15 -5 0
-10 -7 -10 -15z"/>
<path d="M3850 5820 c0 -5 9 -10 20 -10 11 0 20 5 20 10 0 6 -9 10 -20 10 -11
0 -20 -4 -20 -10z"/>
<path d="M4022 5805 c-11 -14 -30 -46 -42 -71 -24 -48 -34 -52 -68 -28 -33 23
-40 9 -14 -26 12 -16 22 -34 22 -40 0 -6 7 -13 15 -16 10 -4 13 -14 9 -30 -4
-14 -2 -24 4 -24 6 0 18 -21 27 -47 14 -42 25 -54 86 -95 39 -27 78 -48 87
-48 8 0 30 -5 49 -12 18 -6 35 -9 39 -6 7 8 -56 106 -84 132 -11 10 -24 31
-27 46 -3 16 -12 33 -19 39 -8 6 -11 23 -9 39 3 15 5 39 4 55 0 18 5 27 15 27
8 0 12 5 9 10 -3 6 -19 10 -36 10 -22 0 -29 5 -29 20 0 11 -4 20 -10 20 -14 0
-12 37 3 43 9 3 9 8 1 16 -9 10 -16 6 -32 -14z"/>
<path d="M3925 5799 c-4 -6 -5 -12 -2 -15 2 -3 7 2 10 11 7 17 1 20 -8 4z"/>
<path d="M3500 5785 c0 -16 16 -20 24 -6 3 5 -1 11 -9 15 -9 3 -15 0 -15 -9z"/>
<path d="M1720 5779 c0 -5 5 -7 10 -4 6 3 10 8 10 11 0 2 -4 4 -10 4 -5 0 -10
-5 -10 -11z"/>
<path d="M2737 5754 c3 -8 14 -14 25 -14 23 0 16 16 -11 23 -14 3 -18 1 -14
-9z"/>
<path d="M3480 5750 c0 -5 7 -10 15 -10 8 0 15 5 15 10 0 6 -7 10 -15 10 -8 0
-15 -4 -15 -10z"/>
<path d="M4100 5738 c0 -6 3 -8 7 -5 3 4 12 2 19 -4 7 -6 18 -8 25 -4 8 6 7
10 -2 16 -20 13 -49 11 -49 -3z"/>
<path d="M5080 5731 c0 -6 5 -13 10 -16 6 -3 10 1 10 9 0 9 -4 16 -10 16 -5 0
-10 -4 -10 -9z"/>
<path d="M3537 5697 c30 -36 43 -30 22 9 -7 13 -21 24 -32 24 -17 0 -16 -4 10
-33z"/>
<path d="M3750 5700 c0 -5 5 -10 10 -10 6 0 10 5 10 10 0 6 -4 10 -10 10 -5 0
-10 -4 -10 -10z"/>
<path d="M3823 5698 c-4 -7 -6 -44 -5 -83 2 -66 5 -73 57 -151 55 -82 81 -111
91 -101 3 3 -11 26 -30 52 -20 25 -36 55 -36 65 0 10 -3 27 -6 37 -6 16 -5 16
8 -1 15 -19 16 -19 23 13 8 38 -9 66 -20 32 -13 -43 -33 -12 -40 64 -3 32 -21
85 -29 85 -3 0 -8 -6 -13 -12z"/>
<path d="M1554 5671 c17 -19 17 -21 -5 -60 -18 -33 -20 -43 -9 -56 10 -12 9
-19 -4 -40 -19 -30 -20 -35 -3 -35 16 0 40 -47 32 -61 -4 -5 -12 -9 -20 -9 -7
0 -18 -13 -24 -30 -7 -21 -17 -30 -31 -30 -14 0 -20 -5 -16 -12 3 -7 9 -21 12
-30 4 -10 10 -18 14 -18 10 0 109 114 134 154 14 22 23 27 47 24 16 -3 30 0
32 6 3 7 9 6 20 -2 25 -21 33 -9 46 67 12 66 12 71 -10 100 -25 35 -44 40
-152 47 -81 5 -81 5 -63 -15z"/>
<path d="M5085 5681 c-6 -11 9 -23 19 -14 9 9 7 23 -3 23 -6 0 -12 -4 -16 -9z"/>
<path d="M4855 5570 c-3 -5 1 -10 9 -10 9 0 16 5 16 10 0 6 -4 10 -9 10 -6 0
-13 -4 -16 -10z"/>
<path d="M4872 5533 c2 -12 13 -18 31 -19 34 -1 35 13 1 26 -34 13 -36 13 -32
-7z"/>
<path d="M5020 5528 c1 -7 7 -31 15 -53 8 -22 15 -53 15 -70 0 -16 14 -59 30
-93 17 -35 30 -69 30 -75 0 -7 11 -34 25 -62 13 -27 25 -62 25 -77 0 -30 18
-47 30 -28 5 7 6 29 3 49 -4 32 -3 34 10 19 8 -10 17 -18 20 -18 9 0 48 92 44
104 -4 13 -50 14 -59 1 -4 -5 -8 11 -8 38 0 26 -4 47 -8 47 -4 0 -37 47 -72
104 -61 99 -101 144 -100 114z"/>
<path d="M1438 5503 c7 -3 16 -2 19 1 4 3 -2 6 -13 5 -11 0 -14 -3 -6 -6z"/>
<path d="M3965 5460 c-3 -5 3 -10 15 -10 12 0 18 5 15 10 -3 6 -10 10 -15 10
-5 0 -12 -4 -15 -10z"/>
<path d="M1500 5450 c-8 -5 -11 -12 -7 -16 4 -4 13 -2 19 4 15 15 7 24 -12 12z"/>
<path d="M1457 5434 c-4 -4 -7 -16 -7 -26 0 -20 25 -25 36 -7 8 13 -19 43 -29
33z"/>
<path d="M4797 5413 c-11 -18 15 -55 48 -68 65 -28 73 -19 25 30 -42 43 -64
54 -73 38z"/>
<path d="M1310 5380 c0 -5 5 -10 11 -10 5 0 7 5 4 10 -3 6 -8 10 -11 10 -2 0
-4 -4 -4 -10z"/>
<path d="M1305 5340 c-3 -6 1 -7 9 -4 18 7 21 14 7 14 -6 0 -13 -4 -16 -10z"/>
<path d="M4442 5280 c2 -7 18 -18 36 -26 40 -16 32 0 -10 22 -20 10 -29 12
-26 4z"/>
<path d="M5336 5265 c8 -37 10 -39 17 -21 3 8 -1 22 -9 33 -13 17 -14 16 -8
-12z"/>
<path d="M1244 5222 c-35 -40 -84 -120 -84 -136 0 -2 7 -7 16 -10 23 -9 78 54
105 121 30 74 14 85 -37 25z"/>
<path d="M882 5217 c-12 -13 -22 -32 -22 -43 0 -21 45 -68 92 -97 26 -16 27
-16 33 3 8 27 -11 87 -42 128 -29 38 -33 39 -61 9z"/>
<path d="M4650 5133 c0 -26 15 -45 57 -73 51 -34 53 -35 53 -15 0 8 -10 19
-22 26 -13 6 -38 25 -55 42 -18 17 -33 26 -33 20z"/>
<path d="M1390 5094 c0 -9 5 -14 12 -12 18 6 21 28 4 28 -9 0 -16 -7 -16 -16z"/>
<path d="M1160 5050 c0 -11 5 -20 10 -20 6 0 10 9 10 20 0 11 -4 20 -10 20 -5
0 -10 -9 -10 -20z"/>
<path d="M4690 5045 c0 -43 93 -86 205 -95 50 -3 99 -10 110 -14 12 -5 3 9
-22 33 -24 24 -52 41 -65 41 -13 0 -33 3 -46 6 -17 5 -21 3 -16 -9 5 -14 0
-14 -48 0 -71 21 -70 20 -95 39 -22 15 -23 15 -23 -1z"/>
<path d="M5185 4980 c-4 -12 -31 -51 -61 -86 -48 -56 -54 -68 -54 -109 0 -40
2 -45 23 -45 29 0 47 18 47 47 0 13 7 26 15 29 8 4 15 10 15 15 0 5 -7 9 -15
9 -20 0 -19 7 4 31 24 26 53 111 41 123 -4 4 -11 -2 -15 -14z"/>
<path d="M5435 4970 c-7 -11 20 -60 31 -60 4 0 4 9 1 20 -3 14 0 20 10 20 13
0 13 3 3 15 -14 17 -36 20 -45 5z"/>
<path d="M4415 4960 c-3 -5 -1 -10 4 -10 6 0 11 5 11 10 0 6 -2 10 -4 10 -3 0
-8 -4 -11 -10z"/>
<path d="M5360 4960 c0 -5 4 -10 9 -10 6 0 13 5 16 10 3 6 -1 10 -9 10 -9 0
-16 -4 -16 -10z"/>
<path d="M5084 4935 c-9 -14 -14 -28 -11 -31 9 -9 47 16 47 31 0 26 -19 26
-36 0z"/>
<path d="M1015 4939 c-4 -6 -5 -12 -2 -15 2 -3 7 2 10 11 7 17 1 20 -8 4z"/>
<path d="M1270 4860 c0 -11 7 -20 15 -20 17 0 18 2 9 24 -9 23 -24 20 -24 -4z"/>
<path d="M5363 4858 c-16 -21 -23 -48 -12 -48 10 0 33 50 26 57 -2 2 -9 -2
-14 -9z"/>
<path d="M952 4844 c-12 -8 -29 -40 -38 -72 -9 -31 -23 -72 -32 -91 -30 -70
-23 -160 11 -148 12 4 37 -43 37 -69 0 -8 8 -31 17 -52 l16 -37 6 35 c5 29 10
34 28 32 18 -3 24 4 33 40 6 24 15 50 20 58 6 8 17 28 24 45 9 20 22 30 36 30
32 0 49 29 32 55 -7 11 -8 20 -2 20 5 0 14 -9 20 -20 18 -34 90 -19 90 20 0
29 -15 32 -78 20 -78 -16 -116 -42 -138 -93 l-18 -42 -7 50 c-4 28 -8 89 -8
136 -1 94 -11 110 -49 83z"/>
<path d="M1240 4830 c0 -5 5 -10 11 -10 5 0 7 5 4 10 -3 6 -8 10 -11 10 -2 0
-4 -4 -4 -10z"/>
<path d="M1391 4781 c-7 -5 -11 -14 -7 -20 5 -7 1 -9 -8 -5 -9 3 -16 2 -16 -4
0 -5 7 -12 15 -16 19 -7 20 -46 1 -46 -7 0 -32 -20 -55 -45 -43 -46 -65 -90
-55 -106 3 -5 -3 -9 -13 -9 -16 -1 -15 -3 5 -19 24 -21 28 -37 10 -43 -8 -3
-3 -20 15 -52 15 -27 27 -62 27 -78 0 -70 44 -152 64 -119 3 4 17 6 30 4 27
-5 27 -5 41 82 4 22 11 60 15 85 12 62 12 154 0 185 -5 14 -11 57 -12 96 -1
53 -6 73 -18 82 -9 7 -19 17 -21 24 -2 8 -9 9 -18 4z"/>
<path d="M5482 4756 c-9 -20 -9 -33 -3 -39 16 -16 23 -3 19 35 l-4 33 -12 -29z"/>
<path d="M4522 4759 c2 -7 10 -15 17 -17 8 -3 12 1 9 9 -2 7 -10 15 -17 17 -8
3 -12 -1 -9 -9z"/>
<path d="M1303 4733 c9 -2 15 -8 12 -13 -8 -14 24 -35 36 -23 12 12 -26 44
-51 42 -11 -1 -10 -3 3 -6z"/>
<path d="M4630 4721 c0 -13 41 -31 71 -31 10 0 19 7 19 15 0 9 -9 15 -22 15
-13 0 -33 3 -45 6 -14 4 -23 2 -23 -5z"/>
<path d="M5520 4716 c0 -8 6 -16 13 -19 9 -3 9 -7 -2 -20 -12 -15 -11 -17 3
-17 17 0 19 11 10 48 -7 24 -24 30 -24 8z"/>
<path d="M5365 4710 c3 -5 8 -10 11 -10 2 0 4 5 4 10 0 6 -5 10 -11 10 -5 0
-7 -4 -4 -10z"/>
<path d="M1260 4679 c0 -5 5 -7 10 -4 6 3 10 8 10 11 0 2 -4 4 -10 4 -5 0 -10
-5 -10 -11z"/>
<path d="M1310 4680 c0 -5 5 -10 11 -10 5 0 7 5 4 10 -3 6 -8 10 -11 10 -2 0
-4 -4 -4 -10z"/>
<path d="M1213 4632 c-10 -11 -33 -42 -52 -69 -19 -26 -46 -60 -60 -75 -21
-24 -22 -28 -8 -34 22 -8 22 -24 0 -24 -14 0 -13 -5 9 -23 19 -16 28 -35 33
-71 8 -57 22 -93 41 -100 8 -3 14 -2 14 2 0 4 7 16 16 27 12 17 16 18 24 5 15
-25 19 -7 8 45 -5 28 -10 102 -11 166 -2 125 6 152 45 141 15 -3 19 -1 16 9
-7 22 -54 23 -75 1z"/>
<path d="M5470 4620 c0 -5 5 -10 11 -10 5 0 7 5 4 10 -3 6 -8 10 -11 10 -2 0
-4 -4 -4 -10z"/>
<path d="M5520 4619 c0 -5 5 -7 10 -4 6 3 10 8 10 11 0 2 -4 4 -10 4 -5 0 -10
-5 -10 -11z"/>
<path d="M5465 4590 c-3 -5 -1 -10 4 -10 6 0 11 5 11 10 0 6 -2 10 -4 10 -3 0
-8 -4 -11 -10z"/>
<path d="M5567 4583 c-4 -3 -7 -13 -7 -22 1 -13 3 -13 11 2 11 19 8 33 -4 20z"/>
<path d="M5125 4570 c3 -5 8 -10 11 -10 2 0 4 5 4 10 0 6 -5 10 -11 10 -5 0
-7 -4 -4 -10z"/>
<path d="M3232 4493 c2 -10 14 -19 27 -21 27 -4 21 12 -10 29 -18 9 -20 8 -17
-8z"/>
<path d="M890 4491 c0 -5 5 -13 10 -16 6 -3 10 -2 10 4 0 5 -4 13 -10 16 -5 3
-10 2 -10 -4z"/>
<path d="M740 4460 c0 -5 7 -10 16 -10 8 0 12 5 9 10 -3 6 -10 10 -16 10 -5 0
-9 -4 -9 -10z"/>
<path d="M790 4460 c0 -5 5 -10 11 -10 5 0 7 5 4 10 -3 6 -8 10 -11 10 -2 0
-4 -4 -4 -10z"/>
<path d="M820 4397 c0 -22 10 -43 31 -66 17 -19 35 -45 40 -58 9 -25 29 -23
29 3 0 21 -78 154 -90 154 -6 0 -10 -15 -10 -33z"/>
<path d="M990 4415 c0 -8 5 -15 10 -15 6 0 10 7 10 15 0 8 -4 15 -10 15 -5 0
-10 -7 -10 -15z"/>
<path d="M4560 4420 c0 -5 5 -10 10 -10 6 0 10 5 10 10 0 6 -4 10 -10 10 -5 0
-10 -4 -10 -10z"/>
<path d="M2155 4373 c-33 -2 -70 -9 -83 -15 -17 -9 -25 -9 -34 0 -16 16 -28
15 -28 -1 0 -7 -35 -22 -87 -36 -127 -34 -120 -31 -104 -40 19 -12 -8 -53 -31
-47 -20 5 -23 -5 -7 -21 13 -13 -8 -58 -45 -92 -22 -21 -26 -22 -26 -7 0 10
-6 16 -12 13 -9 -3 -12 -23 -11 -61 1 -42 -2 -56 -12 -56 -8 0 -19 9 -25 20
-16 30 -40 25 -40 -8 0 -35 43 -78 122 -121 31 -18 62 -39 68 -46 7 -8 19 -15
26 -15 28 0 95 -51 129 -98 34 -48 62 -69 100 -75 11 -2 27 -6 35 -9 57 -21
97 -22 145 -6 28 10 66 18 85 18 58 2 143 24 180 48 19 12 45 22 57 22 12 0
28 7 37 15 8 8 26 15 39 15 14 0 35 8 48 19 22 18 24 27 31 191 4 96 5 177 2
182 -3 4 2 8 10 8 13 0 14 4 5 23 -8 17 -25 27 -61 37 -31 8 -46 15 -38 20 21
13 -27 32 -61 25 -21 -5 -31 -2 -35 9 -4 10 -18 16 -41 16 -41 0 -73 15 -73
35 0 10 -11 15 -32 15 -18 0 -55 7 -82 15 -27 8 -59 14 -70 13 -12 -1 -48 -3
-81 -5z m0 -209 c26 -10 -3 -34 -41 -34 -50 0 -195 -49 -214 -72 -9 -12 -23
-19 -30 -16 -10 3 0 20 33 55 26 27 47 55 47 61 0 6 12 13 28 15 33 5 155 -1
177 -9z m20 -155 c33 0 95 -19 95 -29 0 -6 -3 -10 -8 -10 -4 0 -13 -10 -21
-21 -11 -18 -11 -23 1 -30 7 -5 18 -7 25 -5 19 7 24 -23 5 -33 -58 -30 -192
-36 -259 -10 -12 4 -25 5 -27 0 -8 -13 44 -32 102 -38 29 -3 55 -10 58 -14 9
-15 61 -10 114 11 51 20 136 28 126 11 -3 -4 -32 -11 -65 -15 -33 -4 -64 -13
-70 -20 -14 -17 -157 -27 -237 -18 -53 7 -65 13 -97 47 -42 45 -48 80 -15 91
13 4 39 20 58 35 40 32 133 61 170 53 14 -3 34 -5 45 -5z"/>
<path d="M2140 3969 c0 -5 5 -7 10 -4 6 3 10 8 10 11 0 2 -4 4 -10 4 -5 0 -10
-5 -10 -11z"/>
<path d="M3350 4360 c0 -5 7 -10 16 -10 8 0 12 5 9 10 -3 6 -10 10 -16 10 -5
0 -9 -4 -9 -10z"/>
<path d="M3030 4350 c0 -5 5 -10 10 -10 6 0 10 5 10 10 0 6 -4 10 -10 10 -5 0
-10 -4 -10 -10z"/>
<path d="M2435 4340 c3 -5 13 -10 21 -10 8 0 12 5 9 10 -3 6 -13 10 -21 10 -8
0 -12 -4 -9 -10z"/>
<path d="M3450 4335 c-19 -9 -82 -20 -140 -26 -122 -11 -200 -28 -200 -44 0
-13 -52 -61 -62 -57 -5 1 -16 -6 -27 -17 -10 -10 -25 -21 -32 -23 -10 -3 -4
-13 19 -32 22 -20 32 -36 32 -57 0 -19 8 -34 24 -45 14 -8 33 -36 42 -60 9
-25 31 -56 48 -69 17 -14 38 -32 47 -40 9 -8 21 -15 27 -15 7 0 12 -4 12 -9 0
-5 8 -7 18 -4 12 3 29 -7 48 -29 17 -19 35 -33 40 -31 6 2 19 -6 29 -17 14
-15 31 -20 71 -20 44 0 56 -4 66 -21 26 -43 124 -69 143 -38 3 4 12 6 21 2 11
-4 12 -9 3 -19 -9 -11 -7 -14 12 -14 13 0 31 -4 39 -10 9 -5 19 -5 27 2 10 8
24 7 53 -2 34 -11 42 -11 65 4 35 23 34 56 -2 57 -27 0 -27 1 -5 9 33 14 27
34 -16 53 -42 19 -82 22 -82 8 0 -32 -97 -14 -160 29 -14 9 -31 15 -37 13 -8
-3 -13 3 -13 14 0 11 -5 24 -12 31 -22 22 19 14 75 -14 47 -24 59 -26 128 -21
42 4 119 20 171 37 112 35 113 35 136 12 14 -14 52 -23 153 -36 74 -9 149 -20
167 -23 35 -6 45 11 12 22 -37 12 -23 40 31 62 l50 22 -7 48 c-3 26 -11 57
-16 68 -20 39 -124 128 -178 152 -30 13 -62 28 -70 34 -8 5 -22 12 -30 15 -8
3 -29 12 -46 20 -16 7 -50 16 -75 20 -24 3 -63 15 -87 25 -25 11 -68 20 -100
21 -31 0 -64 4 -72 8 -8 4 -80 10 -160 14 -120 5 -151 3 -180 -9z m529 -86
c-16 -10 -23 -4 -14 10 3 6 11 8 17 5 6 -4 5 -9 -3 -15z m219 -74 c20 -14 41
-25 47 -25 14 0 65 -79 65 -100 0 -9 -3 -11 -8 -5 -7 10 -34 27 -89 56 -17 9
-45 27 -62 41 -27 23 -28 26 -13 41 22 20 18 21 60 -8z m-297 -45 c20 -16 21
-19 7 -20 -9 0 -21 -7 -26 -16 -8 -14 -16 -12 -66 14 -63 32 -60 40 15 41 33
1 54 -5 70 -19z m92 -54 c15 -11 27 -28 27 -38 0 -15 -4 -15 -36 7 -20 14 -40
25 -43 25 -4 0 -7 8 -7 19 0 22 16 18 59 -13z m-150 -130 c33 -8 35 6 5 27
l-23 16 22 0 c12 1 30 -10 40 -23 15 -18 26 -23 46 -19 41 8 37 -31 -5 -57
-43 -26 -47 -25 -59 10 -9 25 -14 28 -29 20 -13 -7 -19 -6 -24 5 -3 8 -12 15
-19 15 -8 0 -19 12 -26 26 l-11 26 27 -20 c16 -10 40 -22 56 -26z m-98 -94
c-3 -3 -11 0 -18 7 -9 10 -8 11 6 5 10 -3 15 -9 12 -12z m-28 -148 c-3 -3 -12
-4 -19 -1 -8 3 -5 6 6 6 11 1 17 -2 13 -5z"/>
<path d="M3930 3930 c0 -5 5 -10 10 -10 6 0 10 5 10 10 0 6 -4 10 -10 10 -5 0
-10 -4 -10 -10z"/>
<path d="M3040 4300 c-12 -8 -12 -10 4 -16 11 -4 24 0 34 10 15 15 15 16 -3
16 -11 0 -27 -4 -35 -10z"/>
<path d="M5550 4271 c0 -6 5 -13 10 -16 6 -3 10 1 10 9 0 9 -4 16 -10 16 -5 0
-10 -4 -10 -9z"/>
<path d="M5170 4260 c0 -5 5 -10 11 -10 5 0 7 5 4 10 -3 6 -8 10 -11 10 -2 0
-4 -4 -4 -10z"/>
<path d="M945 4210 c-3 -5 -1 -18 4 -27 9 -16 10 -14 11 10 0 28 -5 34 -15 17z"/>
<path d="M5560 4210 c0 -5 5 -10 10 -10 6 0 10 5 10 10 0 6 -4 10 -10 10 -5 0
-10 -4 -10 -10z"/>
<path d="M1417 4184 c-4 -4 -7 -18 -7 -31 0 -28 23 -27 28 1 4 20 -11 40 -21
30z"/>
<path d="M1023 4153 c-28 -5 -30 -23 -3 -30 10 -3 22 -13 25 -22 3 -10 23 -25
45 -35 36 -15 39 -20 33 -46 -4 -21 2 -42 22 -75 25 -43 25 -48 11 -64 -20
-23 -20 -29 4 -76 12 -23 16 -41 10 -43 -15 -5 -12 -42 4 -42 14 0 26 -41 26
-87 0 -20 4 -24 23 -21 17 2 23 10 25 39 2 26 13 46 38 70 37 36 43 70 22 129
-9 26 -9 35 0 38 20 6 13 37 -14 63 -14 13 -34 40 -44 59 -42 81 -161 155
-227 143z"/>
<path d="M1620 4099 c0 -15 11 -35 25 -49 23 -22 25 -22 25 -4 0 10 -11 33
-25 49 l-24 30 -1 -26z"/>
<path d="M1356 4091 c-3 -5 1 -14 9 -21 12 -10 15 -10 15 3 0 19 -16 31 -24
18z"/>
<path d="M1375 3933 c-4 -48 -7 -98 -7 -110 0 -13 2 -41 3 -64 1 -22 -3 -45
-10 -52 -6 -6 -11 -19 -11 -28 0 -9 -7 -22 -15 -29 -12 -10 -13 -16 -4 -26 9
-11 6 -20 -15 -39 -15 -14 -32 -25 -39 -25 -7 -1 2 -12 18 -25 24 -20 41 -25
88 -25 50 0 60 -3 64 -19 3 -11 11 -22 19 -25 11 -4 14 13 14 93 0 146 -17
259 -46 301 -13 20 -27 58 -30 85 -11 85 -21 81 -29 -12z"/>
<path d="M1105 3840 c3 -5 11 -10 16 -10 6 0 7 5 4 10 -3 6 -11 10 -16 10 -6
0 -7 -4 -4 -10z"/>
<path d="M3920 3796 c0 -2 7 -6 15 -10 8 -3 15 -1 15 4 0 6 -7 10 -15 10 -8 0
-15 -2 -15 -4z"/>
<path d="M4840 3705 c0 -17 35 -55 51 -55 28 0 23 23 -10 43 -30 18 -41 21
-41 12z"/>
<path d="M4751 3649 c21 -91 69 -136 69 -65 0 19 3 41 6 49 3 10 -8 21 -36 36
-22 11 -42 21 -44 21 -2 0 0 -18 5 -41z"/>
<path d="M1640 3550 c0 -5 5 -10 10 -10 6 0 10 5 10 10 0 6 -4 10 -10 10 -5 0
-10 -4 -10 -10z"/>
<path d="M4990 3534 c0 -8 5 -12 10 -9 6 4 8 11 5 16 -9 14 -15 11 -15 -7z"/>
<path d="M1165 3520 c-3 -5 -2 -10 4 -10 5 0 13 5 16 10 3 6 2 10 -4 10 -5 0
-13 -4 -16 -10z"/>
<path d="M4969 3491 c-21 -8 -89 -89 -89 -106 0 -10 20 -25 35 -25 2 0 9 16
15 35 6 20 23 49 37 66 27 32 28 40 2 30z"/>
<path d="M4785 3480 c-3 -5 -1 -10 4 -10 6 0 11 5 11 10 0 6 -2 10 -4 10 -3 0
-8 -4 -11 -10z"/>
<path d="M5335 3480 c-3 -5 1 -10 10 -10 9 0 13 5 10 10 -3 6 -8 10 -10 10 -2
0 -7 -4 -10 -10z"/>
<path d="M5366 3414 c1 -6 -20 -39 -47 -73 -62 -80 -64 -103 -5 -59 27 20 47
44 51 60 4 15 11 30 16 33 5 4 9 15 9 26 0 11 -4 18 -9 15 -5 -4 -11 -3 -14 1
-2 5 -3 3 -1 -3z"/>
<path d="M4774 3344 c6 -48 27 -73 79 -95 22 -9 31 -9 40 0 8 8 8 14 2 19 -6
4 -16 19 -24 33 -7 15 -24 33 -37 40 -13 6 -26 20 -30 31 -3 10 -12 18 -21 18
-13 0 -15 -8 -9 -46z"/>
<path d="M1410 3310 c6 -11 7 -32 4 -46 -5 -20 -3 -26 7 -22 18 6 24 55 8 74
-17 21 -31 17 -19 -6z"/>
<path d="M4225 3300 c-3 -5 -1 -10 4 -10 6 0 11 5 11 10 0 6 -2 10 -4 10 -3 0
-8 -4 -11 -10z"/>
<path d="M1380 3270 c0 -5 4 -10 9 -10 6 0 13 5 16 10 3 6 -1 10 -9 10 -9 0
-16 -4 -16 -10z"/>
<path d="M1392 3199 c-38 -19 -65 -59 -50 -75 9 -8 116 36 121 50 3 8 -2 21
-12 30 -15 14 -21 14 -59 -5z"/>
<path d="M4780 3207 c0 -7 5 -18 12 -25 7 -7 18 -12 25 -12 20 0 15 28 -6 40
-26 13 -31 13 -31 -3z"/>
<path d="M4290 3140 c0 -5 5 -10 10 -10 6 0 10 5 10 10 0 6 -4 10 -10 10 -5 0
-10 -4 -10 -10z"/>
<path d="M5165 3140 c-3 -5 1 -10 10 -10 9 0 13 5 10 10 -3 6 -8 10 -10 10 -2
0 -7 -4 -10 -10z"/>
<path d="M4684 3129 c-14 -23 -22 -79 -12 -85 14 -9 30 22 34 63 3 32 -8 44
-22 22z"/>
<path d="M5100 3130 c0 -5 5 -10 10 -10 6 0 10 5 10 10 0 6 -4 10 -10 10 -5 0
-10 -4 -10 -10z"/>
<path d="M4740 3109 c0 -5 5 -7 10 -4 6 3 10 8 10 11 0 2 -4 4 -10 4 -5 0 -10
-5 -10 -11z"/>
<path d="M4350 3070 c0 -5 7 -10 16 -10 8 0 12 5 9 10 -3 6 -10 10 -16 10 -5
0 -9 -4 -9 -10z"/>
<path d="M4955 3059 c-11 -17 1 -21 15 -4 8 9 8 15 2 15 -6 0 -14 -5 -17 -11z"/>
<path d="M5082 3045 c4 -17 1 -25 -8 -25 -16 0 -74 -96 -74 -122 0 -12 8 -18
23 -18 39 0 108 152 81 178 -20 18 -27 15 -22 -13z"/>
<path d="M2860 3020 c0 -5 5 -10 11 -10 5 0 7 5 4 10 -3 6 -8 10 -11 10 -2 0
-4 -4 -4 -10z"/>
<path d="M2543 2981 c-18 -49 -5 -80 46 -112 25 -17 56 -32 67 -35 16 -4 26
-22 41 -72 l20 -66 -21 -17 c-12 -10 -18 -21 -14 -25 5 -4 17 1 28 11 11 10
20 13 20 7 0 -7 7 -12 16 -12 8 0 12 -4 9 -10 -3 -5 -16 -10 -27 -10 -21 0
-47 -26 -48 -48 0 -8 12 -6 37 8 45 24 60 26 43 5 -7 -8 -18 -15 -24 -15 -6 0
-16 -10 -21 -22 -12 -27 -74 -46 -87 -26 -5 7 -6 42 -2 78 11 110 10 153 -3
157 -9 3 -13 -5 -13 -24 0 -15 -9 -41 -19 -57 -19 -29 -19 -52 0 -41 12 8 11
1 -3 -30 -6 -14 -19 -25 -30 -25 -23 0 -23 -9 -1 -25 15 -11 14 -13 -8 -25
-13 -7 -34 -22 -46 -33 -19 -16 -25 -18 -38 -7 -8 7 -15 21 -15 32 0 15 -6 19
-25 16 -14 -2 -25 -5 -24 -8 5 -11 -22 -50 -33 -47 -7 1 -17 -11 -23 -28 -5
-16 -18 -41 -27 -56 -24 -35 -32 -82 -19 -108 9 -16 9 -19 -2 -16 -8 4 -13 -2
-13 -15 0 -22 12 -27 19 -7 7 20 16 3 26 -47 5 -28 5 -49 -1 -52 -5 -3 -3 -13
4 -22 10 -12 10 -14 1 -8 -7 4 -13 2 -13 -3 0 -6 4 -11 9 -11 5 0 16 -3 25 -6
10 -4 16 -1 16 9 0 15 54 37 92 37 19 0 46 36 76 100 31 68 42 77 113 95 81
21 139 22 261 1 53 -8 152 -19 220 -24 100 -7 134 -13 181 -35 46 -21 57 -30
57 -50 0 -17 13 -33 44 -55 24 -18 49 -32 54 -32 6 0 31 -16 56 -35 26 -19 52
-35 59 -35 20 0 37 22 37 48 0 13 5 32 11 43 8 16 7 25 -4 37 -22 27 -37 80
-37 138 0 75 -17 82 -55 19 -6 -10 -16 -14 -27 -10 -10 4 -16 11 -13 16 10 16
-7 60 -21 55 -15 -6 -54 43 -54 68 0 9 -7 16 -15 16 -9 0 -15 -6 -14 -12 3
-28 -2 -58 -10 -58 -38 0 -130 121 -131 171 0 9 -6 22 -14 28 -22 18 -27 -23
-10 -80 9 -28 14 -60 12 -71 l-3 -20 -26 20 c-14 12 -59 34 -100 51 -41 17
-64 30 -52 30 16 1 21 6 17 16 -5 11 1 15 22 15 l28 0 -29 30 c-30 32 -30 31
6 102 5 10 9 25 9 33 0 9 8 24 18 35 15 16 24 17 66 9 55 -10 121 4 131 29 10
27 -25 100 -51 106 -33 9 -96 -9 -159 -45 -65 -36 -71 -36 -44 1 13 16 20 32
17 35 -3 3 -51 7 -108 8 -86 2 -106 0 -125 -15 -31 -24 -32 -24 -92 17 -62 42
-73 43 -73 10 0 -17 6 -25 17 -25 15 0 14 -2 -3 -14 -12 -9 -21 -11 -25 -4 -4
6 -8 5 -11 -3 -3 -9 -20 2 -51 34 -25 26 -50 47 -54 47 -5 0 -14 -13 -20 -29z
m447 -121 c0 -5 -7 -10 -15 -10 -8 0 -15 5 -15 10 0 6 7 10 15 10 8 0 15 -4
15 -10z m37 -255 c-3 -18 -5 -17 -15 7 -6 15 -8 43 -5 65 l7 38 8 -45 c5 -25
7 -54 5 -65z m-107 -81 c0 -17 -12 -18 -28 -2 -18 18 -15 27 8 21 11 -3 20
-12 20 -19z"/>
<path d="M3370 2965 c0 -51 18 -79 41 -64 12 8 11 11 -3 20 -12 6 -18 22 -18
44 0 19 -4 37 -10 40 -6 4 -10 -12 -10 -40z"/>
<path d="M2470 2980 c0 -11 5 -20 10 -20 6 0 10 9 10 20 0 11 -4 20 -10 20 -5
0 -10 -9 -10 -20z"/>
<path d="M1596 2974 c-17 -17 -21 -34 -8 -34 10 0 42 33 42 43 0 12 -18 7 -34
-9z"/>
<path d="M4777 2974 c-4 -4 -7 -11 -7 -16 0 -13 50 -6 53 7 2 12 -36 19 -46 9z"/>
<path d="M4875 2930 c-59 -35 -96 -37 -149 -9 -74 39 -170 0 -151 -61 8 -24
50 -27 79 -5 31 24 61 18 102 -20 21 -19 41 -35 45 -35 4 0 14 -3 23 -6 11 -4
16 0 16 12 0 9 7 26 17 36 9 10 21 28 27 41 7 13 23 23 39 25 22 3 28 8 25 24
-4 31 -17 31 -73 -2z"/>
<path d="M3472 2906 c1 -10 8 -17 13 -17 15 1 12 24 -3 29 -9 3 -13 -2 -10
-12z"/>
<path d="M1795 2890 c-3 -5 3 -10 14 -10 11 0 23 5 26 10 3 6 -3 10 -14 10
-11 0 -23 -4 -26 -10z"/>
<path d="M1883 2893 c-19 -7 -16 -26 7 -46 26 -22 28 -22 22 8 -2 15 0 25 7
25 7 0 9 5 6 10 -7 11 -22 12 -42 3z"/>
<path d="M4918 2864 c-10 -19 -18 -41 -18 -49 0 -8 -7 -18 -16 -23 -14 -8 -15
-15 -6 -40 6 -17 8 -32 6 -35 -3 -2 7 -4 21 -4 20 0 25 4 25 26 1 31 21 110
34 130 5 8 4 16 -5 22 -21 13 -22 12 -41 -27z"/>
<path d="M1940 2849 c0 -5 5 -7 10 -4 6 3 10 8 10 11 0 2 -4 4 -10 4 -5 0 -10
-5 -10 -11z"/>
<path d="M1315 2840 c3 -5 14 -10 23 -10 15 0 15 2 2 10 -20 13 -33 13 -25 0z"/>
<path d="M1450 2810 c0 -13 -7 -20 -19 -20 -11 0 -23 -4 -26 -10 -11 -18 32
-11 58 10 14 11 30 20 36 20 6 0 11 5 11 10 0 6 -13 10 -30 10 -23 0 -30 -4
-30 -20z"/>
<path d="M5156 2808 c-8 -32 -7 -38 5 -38 6 0 9 7 5 15 -3 8 -1 15 4 15 6 0
10 7 10 15 0 23 -17 18 -24 -7z"/>
<path d="M3160 2795 c0 -8 5 -15 10 -15 6 0 10 7 10 15 0 8 -4 15 -10 15 -5 0
-10 -7 -10 -15z"/>
<path d="M4550 2778 c0 -18 18 -34 28 -24 3 4 -2 14 -11 23 -16 16 -17 16 -17
1z"/>
<path d="M5125 2750 c3 -5 8 -10 11 -10 2 0 4 5 4 10 0 6 -5 10 -11 10 -5 0
-7 -4 -4 -10z"/>
<path d="M3113 2704 c22 -111 30 -134 48 -134 6 0 6 7 0 18 -5 9 -14 43 -21
74 -6 32 -16 61 -22 64 -7 5 -9 -3 -5 -22z"/>
<path d="M5037 2706 c-27 -12 -77 -74 -77 -95 0 -19 18 -12 25 8 3 11 14 23
23 26 9 3 35 21 56 40 30 27 35 35 20 34 -10 0 -32 -6 -47 -13z"/>
<path d="M4692 2642 c-49 -45 -62 -63 -62 -86 0 -21 4 -27 16 -22 9 3 18 6 20
6 2 0 4 6 4 14 0 7 7 19 15 26 13 11 14 10 9 -5 -5 -13 -3 -16 7 -13 8 3 14
11 14 19 0 8 15 35 32 60 28 41 33 60 14 59 -3 -1 -34 -27 -69 -58z"/>
<path d="M4486 2664 c-9 -23 -7 -74 2 -74 18 0 32 26 32 57 0 35 -23 46 -34
17z"/>
<path d="M5110 2651 c-17 -33 -11 -47 10 -21 11 14 20 28 20 33 0 14 -20 7
-30 -12z"/>
<path d="M1660 2600 c0 -5 5 -10 10 -10 6 0 10 5 10 10 0 6 -4 10 -10 10 -5 0
-10 -4 -10 -10z"/>
<path d="M4580 2596 c0 -8 5 -18 10 -21 6 -3 10 3 10 14 0 12 -4 21 -10 21 -5
0 -10 -6 -10 -14z"/>
<path d="M2420 2580 c0 -5 5 -10 10 -10 6 0 10 5 10 10 0 6 -4 10 -10 10 -5 0
-10 -4 -10 -10z"/>
<path d="M1625 2571 c3 -5 1 -12 -5 -16 -14 -9 -12 -25 3 -25 23 0 38 22 26
37 -13 15 -33 18 -24 4z"/>
<path d="M4515 2555 c-3 -14 -7 -36 -10 -50 -3 -14 -12 -25 -20 -25 -8 0 -15
-4 -15 -10 0 -5 5 -10 10 -10 18 0 -18 -57 -58 -91 -29 -25 -39 -41 -37 -59 2
-21 6 -25 31 -22 32 4 44 17 44 47 0 29 28 65 49 65 30 0 61 -44 70 -101 20
-119 29 -142 70 -183 l41 -41 0 66 c0 69 -17 126 -45 149 -32 27 -46 69 -39
115 5 39 3 49 -20 76 -15 17 -33 47 -41 65 -17 41 -23 42 -30 9z"/>
<path d="M2365 2550 c-3 -5 -1 -10 4 -10 6 0 11 5 11 10 0 6 -2 10 -4 10 -3 0
-8 -4 -11 -10z"/>
<path d="M4930 2549 c0 -5 5 -7 10 -4 6 3 10 8 10 11 0 2 -4 4 -10 4 -5 0 -10
-5 -10 -11z"/>
<path d="M2285 2540 c3 -5 8 -10 11 -10 2 0 4 5 4 10 0 6 -5 10 -11 10 -5 0
-7 -4 -4 -10z"/>
<path d="M4296 2514 c-10 -26 -7 -31 29 -53 19 -11 35 -16 35 -11 0 6 -4 10
-9 10 -5 0 -7 9 -4 20 10 37 -38 69 -51 34z"/>
<path d="M1816 2483 c15 -21 29 -40 31 -42 8 -11 12 7 6 27 -3 13 -19 30 -35
38 l-30 16 28 -39z"/>
<path d="M2317 2509 c7 -7 15 -10 18 -7 3 3 -2 9 -12 12 -14 6 -15 5 -6 -5z"/>
<path d="M1607 2503 c-4 -3 -7 -13 -7 -21 0 -12 3 -12 15 -2 8 7 15 16 15 21
0 11 -14 12 -23 2z"/>
<path d="M4768 2486 c-36 -20 -49 -36 -29 -36 18 0 101 41 101 50 0 16 -32 10
-72 -14z"/>
<path d="M2230 2468 c0 -7 5 -20 10 -28 8 -12 10 -11 10 7 0 12 -4 25 -10 28
-5 3 -10 0 -10 -7z"/>
<path d="M4130 2460 c0 -5 5 -10 11 -10 5 0 7 5 4 10 -3 6 -8 10 -11 10 -2 0
-4 -4 -4 -10z"/>
<path d="M4905 2460 c3 -5 11 -10 16 -10 6 0 7 5 4 10 -3 6 -11 10 -16 10 -6
0 -7 -4 -4 -10z"/>
<path d="M4970 2437 c0 -10 -4 -17 -10 -17 -20 0 -9 -40 15 -56 31 -20 43 -13
37 25 -5 35 -42 76 -42 48z"/>
<path d="M4794 2426 c-17 -6 -46 -23 -66 -38 -33 -25 -35 -30 -33 -80 1 -41 5
-52 16 -49 8 2 32 6 54 9 24 2 55 15 78 33 20 17 42 27 47 24 6 -4 10 8 10 29
0 19 3 41 6 49 5 14 -4 18 -66 31 -8 2 -29 -2 -46 -8z"/>
<path d="M4000 2393 c0 -12 -5 -25 -10 -28 -13 -8 40 -84 58 -85 24 0 13 64
-18 100 -26 32 -29 33 -30 13z"/>
<path d="M4257 2348 c-61 -79 -103 -113 -155 -127 -54 -13 -65 -25 -33 -34 44
-11 105 10 137 48 23 27 37 36 55 33 15 -2 24 -10 24 -21 0 -23 22 -37 63 -37
30 0 42 12 23 24 -5 3 -14 27 -20 53 -14 56 -36 93 -55 93 -8 0 -25 -15 -39
-32z"/>
<path d="M3672 2358 c-14 -14 -16 -38 -4 -38 10 0 42 33 42 43 0 11 -25 8 -38
-5z"/>
<path d="M5040 2359 c0 -5 5 -7 10 -4 6 3 10 8 10 11 0 2 -4 4 -10 4 -5 0 -10
-5 -10 -11z"/>
<path d="M1625 2350 c-3 -5 -1 -10 4 -10 6 0 11 5 11 10 0 6 -2 10 -4 10 -3 0
-8 -4 -11 -10z"/>
<path d="M1450 2339 c0 -5 5 -7 10 -4 6 3 10 8 10 11 0 2 -4 4 -10 4 -5 0 -10
-5 -10 -11z"/>
<path d="M1545 2330 c-3 -5 -1 -10 4 -10 6 0 11 5 11 10 0 6 -2 10 -4 10 -3 0
-8 -4 -11 -10z"/>
<path d="M5080 2330 c0 -5 5 -10 11 -10 5 0 7 5 4 10 -3 6 -8 10 -11 10 -2 0
-4 -4 -4 -10z"/>
<path d="M2225 2300 c19 -19 31 -26 34 -19 2 7 -6 21 -19 31 -36 29 -46 21
-15 -12z"/>
<path d="M2090 2292 c0 -21 84 -104 123 -120 15 -7 30 -19 33 -27 11 -29 27
-16 20 18 -7 34 -17 44 -108 107 -65 46 -68 47 -68 22z"/>
<path d="M4990 2300 c0 -5 7 -10 16 -10 8 0 12 5 9 10 -3 6 -10 10 -16 10 -5
0 -9 -4 -9 -10z"/>
<path d="M1610 2277 c0 -27 -24 -63 -52 -78 -18 -10 -20 -9 -15 4 8 22 -31 34
-49 15 -12 -12 -12 -17 2 -36 8 -12 21 -22 29 -22 9 0 12 -6 9 -15 -9 -22 24
-30 44 -12 23 21 66 132 59 151 -9 24 -27 19 -27 -7z"/>
<path d="M3812 2278 c-13 -13 -16 -38 -4 -38 12 0 41 38 35 44 -9 9 -18 7 -31
-6z"/>
<path d="M3313 2236 c-13 -7 -31 -20 -41 -29 -15 -14 -56 -17 -305 -19 -158
-1 -287 -6 -287 -10 0 -4 9 -8 21 -8 11 0 18 -4 15 -9 -3 -4 7 -6 22 -4 l27 5
-25 -21 c-27 -21 -25 -23 33 -35 17 -4 25 -11 21 -18 -5 -8 -1 -9 12 -4 46 19
54 18 64 -8 5 -15 15 -24 20 -21 6 4 50 8 98 10 48 2 101 9 117 15 l30 12 -25
13 c-25 14 -25 14 14 15 30 0 37 3 32 15 -3 8 -2 15 2 16 4 0 18 3 32 5 14 2
36 6 50 7 37 5 66 23 90 57 23 32 19 36 -17 16z"/>
<path d="M2700 2231 c0 -10 77 -31 85 -23 6 6 -50 32 -71 32 -8 0 -14 -4 -14
-9z"/>
<path d="M4909 2196 c-37 -17 -75 -38 -85 -47 -11 -9 -30 -20 -43 -24 l-23 -7
25 -25 c23 -24 27 -24 61 -12 20 7 36 18 36 24 0 5 23 30 52 55 28 25 49 51
47 56 -2 6 -31 -2 -70 -20z"/>
<path d="M1650 2171 c0 -22 15 -35 30 -26 7 4 7 13 0 26 -14 25 -30 25 -30 0z"/>
<path d="M1710 2132 c0 -10 18 -33 39 -50 59 -47 89 -26 59 41 -11 23 -19 27
-55 27 -35 0 -43 -3 -43 -18z"/>
<path d="M4740 2139 c0 -5 5 -7 10 -4 6 3 10 8 10 11 0 2 -4 4 -10 4 -5 0 -10
-5 -10 -11z"/>
<path d="M1990 2105 c0 -8 15 -22 33 -31 17 -9 51 -30 74 -47 48 -34 64 -30
42 9 -26 49 -149 106 -149 69z"/>
<path d="M2093 2109 c14 -8 22 -8 30 0 8 8 3 11 -18 11 -26 -1 -28 -2 -12 -11z"/>
<path d="M3750 2109 c0 -5 5 -7 10 -4 6 3 10 8 10 11 0 2 -4 4 -10 4 -5 0 -10
-5 -10 -11z"/>
<path d="M1546 2085 c-3 -9 -6 -37 -6 -63 0 -42 2 -45 15 -31 19 18 25 100 9
106 -6 2 -14 -3 -18 -12z"/>
<path d="M4735 2059 c-9 -13 27 -40 39 -29 12 12 0 40 -18 40 -8 0 -18 -5 -21
-11z"/>
<path d="M4461 2040 c-37 -21 -91 -75 -91 -91 0 -5 -11 -15 -25 -21 -14 -6
-28 -22 -31 -35 -4 -13 -11 -23 -16 -23 -18 0 14 -158 40 -197 5 -8 37 -15 75
-17 l67 -5 -22 32 c-12 17 -23 39 -23 49 -2 22 -16 37 -22 22 -6 -17 -56 -4
-75 20 -36 43 -8 78 32 41 23 -21 33 -8 57 75 16 53 25 69 54 87 77 50 81 54
68 69 -16 19 -47 17 -88 -6z"/>
<path d="M4223 2033 c-17 -2 -37 -11 -43 -19 -7 -8 -18 -14 -26 -14 -17 0 -84
-40 -84 -49 0 -5 8 -15 18 -24 14 -13 20 -13 35 -2 11 7 36 17 58 20 29 5 46
17 69 45 33 42 36 51 18 48 -7 0 -27 -3 -45 -5z"/>
<path d="M3670 2015 c-22 -27 -5 -37 19 -11 19 20 21 26 9 26 -9 0 -21 -7 -28
-15z"/>
<path d="M1420 1996 c0 -8 5 -18 10 -21 6 -3 10 3 10 14 0 12 -4 21 -10 21 -5
0 -10 -6 -10 -14z"/>
<path d="M3920 2001 c-8 -5 -46 -14 -84 -20 -81 -12 -102 -26 -81 -55 14 -18
16 -18 109 4 97 22 123 38 112 65 -6 16 -33 19 -56 6z"/>
<path d="M4742 1998 c-21 -21 -13 -27 21 -16 47 16 56 28 21 28 -16 0 -35 -5
-42 -12z"/>
<path d="M2010 1967 c0 -27 38 -67 63 -67 23 0 22 5 -15 51 -36 45 -48 49 -48
16z"/>
<path d="M1630 1919 c-24 -16 -50 -29 -58 -29 -7 0 -10 -4 -7 -10 3 -5 19 -10
36 -10 16 0 29 -1 30 -2 0 -2 6 -43 12 -93 9 -66 16 -91 27 -93 18 -3 18 -3
26 138 8 130 0 141 -66 99z"/>
<path d="M1442 1859 c2 -6 8 -10 13 -10 5 0 11 4 13 10 2 6 -4 11 -13 11 -9 0
-15 -5 -13 -11z"/>
<path d="M1737 1851 c-17 -6 -17 -8 2 -25 11 -10 17 -25 14 -33 -9 -24 119
-14 147 12 19 17 19 19 4 37 -14 14 -31 18 -83 17 -36 0 -74 -4 -84 -8z"/>
<path d="M4485 1801 c-3 -5 -1 -12 5 -16 5 -3 10 1 10 9 0 18 -6 21 -15 7z"/>
<path d="M1455 1771 c-8 -14 13 -53 26 -46 13 9 11 31 -5 44 -10 8 -16 9 -21
2z"/>
<path d="M4500 1750 c0 -5 5 -10 10 -10 6 0 10 5 10 10 0 6 -4 10 -10 10 -5 0
-10 -4 -10 -10z"/>
<path d="M5010 1751 c0 -13 26 -32 33 -24 8 7 -11 33 -24 33 -5 0 -9 -4 -9 -9z"/>
<path d="M4100 1716 c-5 -15 -10 -40 -10 -55 0 -15 -5 -32 -12 -39 -17 -17 -3
-26 20 -13 11 6 22 8 26 4 6 -7 96 -37 137 -47 21 -5 28 -1 38 21 10 22 10 28
-3 35 -23 13 -20 28 5 25 12 -1 24 3 26 10 5 14 -72 37 -89 27 -6 -4 -8 -3 -4
4 4 7 -11 13 -41 18 -27 3 -56 13 -65 22 -16 13 -18 12 -28 -12z"/>
<path d="M2814 1719 c-10 -16 28 -62 64 -78 18 -8 32 -22 32 -30 0 -9 7 -25
15 -35 8 -11 15 -28 15 -38 0 -30 17 -20 24 13 4 23 0 38 -15 57 -11 15 -36
48 -55 75 -34 46 -65 60 -80 36z"/>
<path d="M4953 1694 c-3 -9 0 -20 7 -24 8 -5 10 -17 6 -34 -6 -25 -5 -26 14
-16 12 6 26 23 33 37 9 21 8 27 -8 39 -25 18 -44 18 -52 -2z"/>
<path d="M3524 1646 c-31 -33 -62 -56 -77 -58 -37 -5 -46 -18 -12 -18 16 0 37
-7 47 -17 17 -15 17 -17 2 -35 -23 -25 -7 -22 39 6 29 18 34 25 23 29 -22 9
-20 30 3 44 23 14 56 103 38 103 -6 0 -34 -25 -63 -54z"/>
<path d="M5026 1658 c-19 -29 -18 -59 1 -65 7 -3 15 10 18 31 10 51 2 66 -19
34z"/>
<path d="M4747 1646 c-4 -10 -5 -21 -2 -24 9 -9 17 6 13 25 -3 17 -4 17 -11
-1z"/>
<path d="M4930 1650 c0 -5 5 -10 10 -10 6 0 10 5 10 10 0 6 -4 10 -10 10 -5 0
-10 -4 -10 -10z"/>
<path d="M1940 1615 c0 -19 4 -35 9 -35 16 0 41 -30 41 -50 0 -14 -5 -17 -22
-12 -21 5 -21 4 -5 -19 9 -13 17 -35 17 -49 1 -35 23 -63 38 -48 7 7 12 16 12
20 0 5 9 18 19 29 l19 21 7 -21 c7 -23 83 -61 122 -61 13 0 38 -7 55 -16 18
-9 63 -27 100 -40 l69 -23 -3 37 c-2 25 -9 40 -24 47 -12 6 -39 23 -60 37 -51
35 -103 53 -194 68 -137 23 -134 21 -142 69 -7 42 -31 81 -50 81 -4 0 -8 -16
-8 -35z"/>
<path d="M3223 1633 c-26 -10 -12 -23 23 -23 31 0 35 2 24 15 -13 15 -25 17
-47 8z"/>
<path d="M2685 1620 c3 -5 8 -10 11 -10 2 0 4 5 4 10 0 6 -5 10 -11 10 -5 0
-7 -4 -4 -10z"/>
<path d="M2819 1601 c-23 -22 -7 -70 16 -51 16 13 19 38 7 56 -5 8 -12 6 -23
-5z"/>
<path d="M1536 1601 c-6 -9 30 -71 41 -71 2 0 0 12 -3 28 -8 34 -29 58 -38 43z"/>
<path d="M2695 1589 c-4 -5 -1 -9 4 -9 6 0 11 -6 11 -14 0 -18 19 -31 29 -20
4 5 -3 19 -16 31 -12 12 -25 18 -28 12z"/>
<path d="M3178 1593 c7 -3 16 -2 19 1 4 3 -2 6 -13 5 -11 0 -14 -3 -6 -6z"/>
<path d="M2280 1578 c0 -5 25 -20 55 -33 30 -14 55 -29 55 -35 0 -5 9 -10 20
-10 10 0 23 -8 29 -17 5 -10 12 -15 16 -11 10 9 -9 39 -47 74 -24 24 -45 33
-80 37 -27 2 -48 0 -48 -5z"/>
<path d="M4499 1532 c-74 -49 -139 -107 -139 -125 0 -3 14 -7 30 -9 20 -3 30
0 30 9 0 7 9 13 20 13 11 0 20 6 20 13 0 15 72 85 113 110 24 16 38 47 20 47
-5 0 -47 -26 -94 -58z"/>
<path d="M4893 1568 c-11 -13 -30 -40 -42 -61 -19 -31 -26 -36 -37 -26 -8 7
-17 9 -21 5 -3 -3 -1 -6 6 -6 7 0 10 -4 7 -9 -3 -5 1 -14 9 -21 9 -7 23 -28
31 -46 9 -19 23 -34 30 -34 18 0 32 32 16 38 -20 6 -14 22 8 22 20 0 60 52 60
78 0 28 -25 4 -28 -26 -3 -28 -7 -32 -33 -32 -29 0 -41 22 -18 36 9 5 49 87
49 100 0 11 -19 2 -37 -18z"/>
<path d="M2760 1550 c0 -5 7 -10 15 -10 8 0 15 5 15 10 0 6 -7 10 -15 10 -8 0
-15 -4 -15 -10z"/>
<path d="M2610 1540 c0 -5 5 -10 11 -10 5 0 7 5 4 10 -3 6 -8 10 -11 10 -2 0
-4 -4 -4 -10z"/>
<path d="M3180 1540 c0 -6 7 -10 15 -10 8 0 15 2 15 4 0 2 -7 6 -15 10 -8 3
-15 1 -15 -4z"/>
<path d="M3230 1540 c0 -5 5 -10 10 -10 6 0 10 5 10 10 0 6 -4 10 -10 10 -5 0
-10 -4 -10 -10z"/>
<path d="M4036 1541 c-4 -7 -5 -15 -2 -18 9 -9 19 4 14 18 -4 11 -6 11 -12 0z"/>
<path d="M4280 1540 c0 -5 5 -10 10 -10 6 0 10 5 10 10 0 6 -4 10 -10 10 -5 0
-10 -4 -10 -10z"/>
<path d="M5000 1540 c0 -5 5 -10 11 -10 5 0 7 5 4 10 -3 6 -8 10 -11 10 -2 0
-4 -4 -4 -10z"/>
<path d="M3895 1530 c-3 -5 -1 -10 4 -10 6 0 11 5 11 10 0 6 -2 10 -4 10 -3 0
-8 -4 -11 -10z"/>
<path d="M2897 1524 c-8 -8 1 -24 13 -24 4 0 10 7 14 15 5 15 -14 21 -27 9z"/>
<path d="M2790 1500 c0 -20 -1 -20 -30 -5 -28 15 -30 14 -30 -3 0 -10 5 -23
10 -28 17 -17 -5 -61 -35 -68 -14 -4 -30 -4 -35 -1 -5 3 -14 -12 -20 -34 -8
-30 -23 -50 -60 -78 -52 -40 -56 -51 -44 -125 7 -38 24 -53 24 -20 1 16 2 16
15 -1 10 -14 11 -25 3 -42 -14 -31 11 -66 98 -140 66 -55 78 -59 142 -39 9 2
12 -22 11 -104 -1 -59 -3 -99 -6 -89 -2 9 -11 17 -18 17 -7 0 -22 18 -32 39
-17 37 -50 59 -77 52 -6 -1 -40 7 -77 19 -71 23 -114 24 -114 1 0 -8 9 -19 19
-25 11 -6 27 -16 35 -23 9 -7 31 -23 50 -35 43 -28 44 -41 5 -49 -29 -5 -71
13 -87 38 -12 20 -66 15 -98 -8 -29 -21 -31 -21 -99 -4 -43 11 -84 15 -106 11
-22 -5 -41 -3 -50 5 -8 6 -25 8 -40 5 -21 -6 -25 -4 -21 8 3 8 -2 20 -10 28
-15 11 -16 11 -10 -4 4 -12 2 -18 -8 -18 -16 0 -21 -16 -7 -22 5 -2 15 -16 23
-32 8 -16 34 -40 59 -53 25 -14 57 -34 72 -44 14 -11 35 -19 46 -19 54 0 69
-27 26 -47 -23 -11 -31 -10 -54 7 -15 10 -33 26 -40 35 -15 18 -60 20 -60 2 0
-7 11 -35 24 -63 22 -44 23 -51 9 -66 -17 -19 -9 -33 78 -131 25 -29 53 -65
63 -80 21 -34 64 -57 74 -40 5 8 15 4 30 -12 19 -20 20 -24 7 -35 -19 -16 -20
-52 -1 -48 8 2 41 -22 73 -53 32 -31 68 -61 80 -68 16 -8 238 -11 825 -10 442
1 790 4 773 6 -16 2 -45 6 -64 9 -30 5 -32 6 -15 19 13 9 38 12 76 9 36 -3 58
0 58 6 0 5 -4 10 -10 10 -5 0 -10 12 -10 26 0 19 -4 25 -14 21 -12 -5 -14 3
-10 46 8 83 14 103 24 87 7 -12 12 -12 35 0 22 12 28 12 35 1 8 -15 30 -7 30
11 0 6 8 17 18 25 12 10 13 13 2 10 -19 -5 -35 12 -53 56 l-15 36 31 7 c17 3
37 13 45 20 11 12 11 15 -3 20 -12 5 -13 10 -5 20 7 7 18 10 26 7 11 -4 12 0
3 26 -6 17 -15 33 -19 36 -5 3 -4 20 1 38 6 17 13 38 15 46 3 9 8 11 14 5 5
-5 5 -25 0 -49 -5 -22 -7 -41 -5 -44 10 -9 35 23 35 46 0 21 2 22 21 13 25
-14 22 -16 38 38 12 44 27 55 33 25 3 -13 10 -7 26 22 20 38 21 39 22 13 0
-16 5 -28 10 -28 17 0 22 27 10 49 -12 24 -67 29 -89 9 -11 -10 -14 -10 -18 0
-3 6 -12 12 -21 13 -11 0 -13 2 -4 6 14 5 -51 75 -81 86 -10 4 -25 23 -33 43
-12 28 -19 35 -35 31 -14 -4 -18 -2 -11 6 4 7 14 31 22 54 l13 42 28 -15 c34
-17 39 -2 7 21 -31 21 -13 49 34 53 62 5 96 -39 128 -166 10 -39 13 -42 38
-36 48 10 52 13 52 38 0 19 7 27 25 32 14 3 25 12 25 20 0 7 6 11 13 8 33 -12
142 136 117 160 -9 8 -16 5 -28 -14 -52 -77 -78 -94 -102 -66 -9 12 -4 20 32
42 24 15 44 28 46 29 9 8 10 65 1 65 -6 0 -7 -5 -3 -12 4 -6 3 -8 -3 -5 -6 4
-18 28 -28 54 -23 63 -28 68 -74 82 -22 6 -42 15 -45 19 -5 9 61 152 71 152
14 0 93 -95 93 -112 0 -12 9 -16 34 -15 34 1 34 1 38 53 l3 51 -30 -1 c-24 -1
-31 3 -33 23 -2 13 -12 25 -22 28 -10 3 -21 16 -24 29 -11 42 -49 31 -133 -38
-101 -83 -133 -116 -133 -139 0 -26 6 -24 51 12 l40 31 -30 -48 c-16 -27 -40
-69 -53 -94 l-22 -45 -7 39 c-9 57 -52 77 -69 32 -5 -13 -13 -27 -19 -30 -7
-5 -8 -30 -4 -68 l6 -61 -50 -46 c-28 -25 -56 -56 -62 -68 -6 -13 -20 -23 -30
-23 -10 0 -26 -9 -36 -20 -23 -26 -111 -80 -118 -73 -6 6 30 43 42 43 5 0 12
7 15 15 5 15 -8 24 -55 38 -9 3 -19 15 -22 26 -4 17 1 22 31 31 20 5 44 20 54
32 12 17 27 23 57 23 24 0 37 3 31 9 -12 12 27 62 60 76 27 11 60 57 60 84 0
20 -14 21 -30 1 -18 -22 -43 -18 -70 10 l-23 24 32 27 c39 33 56 63 43 76 -6
6 -21 -4 -42 -31 -23 -28 -52 -48 -99 -67 -36 -15 -73 -33 -81 -40 -9 -7 -35
-16 -58 -20 -23 -4 -42 -10 -42 -14 0 -27 -159 -45 -202 -24 -29 15 -91 97
-81 108 3 3 12 1 18 -4 9 -7 26 -6 54 4 23 7 41 10 41 5 0 -15 74 -10 97 6 29
20 83 116 83 148 0 18 8 28 30 37 40 17 39 34 -2 26 -18 -4 -62 -11 -98 -17
-36 -6 -72 -17 -80 -25 -13 -14 -13 -15 0 -14 8 1 22 2 30 1 20 -1 -55 -41
-79 -41 -10 0 -24 -7 -31 -15 -9 -10 -9 -15 -1 -15 6 0 11 -4 11 -10 0 -14
-55 -40 -85 -40 -27 0 -32 -9 -13 -28 6 -6 8 -15 5 -19 -11 -11 -41 24 -42 50
-2 28 -49 77 -75 77 -16 0 -20 -7 -20 -33 0 -18 -7 -42 -15 -53 -10 -13 -14
-45 -15 -100 0 -77 -1 -82 -34 -117 -18 -20 -33 -37 -32 -38 0 0 8 -2 16 -4 8
-2 23 -6 33 -10 11 -5 17 -3 17 5 0 9 6 7 20 -5 18 -17 19 -16 26 9 3 14 10
26 15 26 5 0 7 17 3 38 -4 28 -2 41 10 51 9 7 16 20 16 28 0 8 5 11 10 8 6 -3
10 -15 10 -26 0 -10 4 -19 8 -19 18 0 34 -79 30 -139 l-4 -61 43 47 c29 31 46
44 50 35 2 -7 16 -26 30 -43 23 -27 25 -36 19 -85 -8 -72 -29 -120 -55 -129
-12 -3 -24 -17 -27 -30 -7 -30 -33 -39 -107 -40 -46 0 -62 -4 -73 -19 -8 -11
-14 -14 -14 -8 0 7 -7 12 -15 12 -27 0 -145 -58 -145 -72 -1 -7 -17 -23 -36
-35 -39 -25 -66 -31 -46 -11 19 19 14 28 -13 28 -13 0 -28 -8 -33 -17 -8 -14
-11 -11 -16 14 -6 24 -2 36 17 56 13 14 36 50 52 79 50 95 89 150 112 159 16
6 20 14 16 29 -4 13 1 26 13 34 17 13 17 14 -4 20 -13 5 -35 1 -54 -8 -54 -27
-106 -15 -79 18 9 11 2 15 -35 21 -65 9 -94 22 -94 40 0 19 -14 19 -30 0 -10
-13 -10 -19 4 -33 20 -23 12 -33 -24 -26 -22 5 -32 0 -58 -31 l-30 -37 -7 67
c-5 46 -15 79 -31 103 -27 39 -27 41 -14 62 6 10 10 11 10 3 0 -7 5 -13 11
-13 5 0 8 4 5 9 -3 4 6 6 20 3 14 -2 43 1 64 8 30 10 37 16 32 33 -5 18 -2 19
24 12 38 -10 68 -8 130 10 85 24 113 62 86 113 -14 25 -39 23 -104 -9 -21 -11
-46 -19 -56 -19 -11 0 -31 -9 -46 -21 -30 -23 -40 -20 -62 24 l-17 31 57 53
c31 29 56 55 56 58 0 3 -8 5 -18 5 -10 0 -40 -23 -67 -50 -44 -45 -50 -48 -57
-31 -8 23 -55 57 -65 47 -3 -3 -1 -17 7 -30 10 -20 10 -28 -3 -46 -12 -18 -13
-27 -4 -47 10 -23 8 -28 -17 -48 -18 -14 -24 -25 -17 -29 17 -11 13 -26 -8
-26 -28 0 -41 22 -48 81 -3 30 -10 62 -15 72 -6 11 -3 34 9 66 l17 49 -24 21
c-32 26 -50 26 -50 1z m14 -147 c15 -39 -14 -148 -53 -195 -11 -14 -11 -20 -1
-33 7 -9 21 -13 30 -10 12 4 19 -1 23 -16 8 -30 -9 -59 -34 -59 -19 0 -19 1
-4 17 16 16 16 17 -1 30 -10 7 -27 13 -38 13 -53 0 -66 11 -66 50 0 81 21 138
67 180 46 43 67 49 77 23z m1785 -147 c24 -11 71 -86 71 -112 0 -13 -29 -28
-38 -19 -3 2 1 11 8 20 11 13 8 15 -21 15 -25 0 -30 3 -19 10 12 8 7 17 -28
52 -23 24 -42 47 -42 52 0 8 31 0 69 -18z m-100 -88 c1 -22 -17 -23 -40 -2
-18 16 -18 18 4 40 l22 23 7 -22 c3 -12 6 -30 7 -39z m-992 -10 c-3 -8 -6 -5
-6 6 -1 11 2 17 5 13 3 -3 4 -12 1 -19z m1113 -113 c21 -11 22 -15 8 -20 -20
-8 -61 12 -53 26 8 12 15 11 45 -6z m-1495 -38 c-10 -8 -15 -19 -11 -25 4 -7
2 -12 -4 -12 -6 0 -13 7 -17 16 -6 17 12 34 36 34 11 0 10 -4 -4 -13z m-98
-99 c-3 -8 -6 -5 -6 6 -1 11 2 17 5 13 3 -3 4 -12 1 -19z m916 -10 c8 -30 1
-35 -23 -13 -25 23 -26 35 -1 35 11 0 21 -9 24 -22z m241 -73 c-4 -8 -8 -15
-10 -15 -2 0 -4 7 -4 15 0 8 4 15 10 15 5 0 7 -7 4 -15z m-336 -16 c-22 -12
-23 -29 -2 -29 11 0 14 -8 12 -27 -3 -27 -6 -28 -65 -31 -52 -2 -63 0 -63 13
0 19 -24 19 -44 -1 -9 -8 -21 -12 -27 -9 -6 4 -13 -2 -16 -14 -6 -23 -11 -25
-32 -12 -9 6 -19 4 -29 -6 -13 -13 -17 -12 -31 2 -13 14 -13 18 -2 22 7 3 23
15 34 26 19 19 21 19 33 3 7 -10 15 -13 18 -7 8 13 114 43 125 36 5 -3 11 -2
13 2 4 9 68 42 83 42 6 0 2 -4 -7 -10z m367 -56 c9 -20 13 -43 11 -50 -10 -25
4 -39 37 -36 27 2 28 1 8 -5 -35 -11 -48 -35 -34 -64 7 -13 15 -38 18 -55 6
-29 4 -33 -14 -33 -15 0 -21 -6 -21 -21 0 -11 -4 -17 -10 -14 -5 3 -10 17 -10
31 0 13 5 24 10 24 6 0 10 5 10 11 0 5 -5 7 -10 4 -6 -3 -13 1 -16 10 -4 11
-14 15 -26 12 -11 -3 -39 3 -63 13 -37 16 -42 21 -38 44 5 26 17 34 27 17 4
-5 1 -11 -6 -13 -15 -5 -1 -28 18 -28 8 0 12 5 9 10 -4 6 -1 17 5 25 6 8 9 19
5 25 -8 14 8 13 23 -2 13 -13 16 -6 26 50 4 20 2 31 -4 27 -18 -11 -11 27 8
41 9 7 18 14 19 14 2 0 10 -17 18 -37z m-1745 12 c0 -9 -6 -12 -16 -8 -13 5
-13 7 -2 14 17 11 18 11 18 -6z m-113 -29 l28 -24 -35 7 c-21 4 -36 13 -38 24
-5 24 12 21 45 -7z m1753 -16 c0 -5 -4 -10 -10 -10 -5 0 -10 5 -10 10 0 6 5
10 10 10 6 0 10 -4 10 -10z m-585 -47 c0 -41 5 -39 -82 -34 l-38 2 60 34 c33
19 60 35 60 35 0 0 0 -17 0 -37z m585 1 c0 -8 -4 -12 -10 -9 -5 3 -10 13 -10
21 0 8 5 12 10 9 6 -3 10 -13 10 -21z m-290 1 c17 -20 -9 -21 -36 0 -19 14
-19 14 2 15 12 0 27 -7 34 -15z m154 -7 c5 -9 7 -20 3 -24 -10 -10 -38 16 -30
29 4 6 0 8 -10 4 -10 -3 -17 -2 -17 4 0 16 42 6 54 -13z m76 -29 c0 -6 -4 -7
-10 -4 -5 3 -10 11 -10 16 0 6 5 7 10 4 6 -3 10 -11 10 -16z m-480 -14 c-7 -9
-15 -13 -17 -11 -7 7 7 26 19 26 6 0 6 -6 -2 -15z m118 -10 c11 -13 22 -42 26
-65 6 -37 9 -40 39 -40 54 0 61 -26 27 -98 -15 -33 -33 -63 -39 -66 -7 -5 -9
-1 -5 9 4 9 -1 24 -11 35 -10 11 -15 28 -13 38 3 11 1 27 -4 36 -5 10 -13 44
-18 77 -5 32 -16 66 -24 75 -18 18 -20 24 -7 24 5 0 18 -11 29 -25z m655 -45
c-5 -19 -23 -39 -23 -25 0 9 20 45 24 45 2 0 2 -9 -1 -20z m-33 -74 c0 -2 -7
-7 -16 -10 -8 -3 -12 -2 -9 4 6 10 25 14 25 6z m-668 -33 c18 -16 24 -34 11
-31 -5 1 -20 -2 -35 -6 -37 -11 -56 3 -26 18 12 7 22 18 21 24 -4 17 7 15 29
-5z m-842 -9 c0 -2 -9 -4 -21 -4 -11 0 -18 4 -14 10 5 8 35 3 35 -6z m-349
-118 c18 -9 38 -16 46 -16 7 0 24 -6 36 -14 30 -19 112 -29 135 -17 13 7 22 7
29 0 8 -8 13 -5 18 10 7 23 -2 44 -15 36 -5 -3 -11 -1 -15 5 -12 19 25 23 45
5 18 -16 21 -17 44 -1 30 19 66 21 66 3 0 -7 9 -18 20 -25 30 -18 14 -35 -26
-27 -20 3 -34 2 -34 -4 0 -5 5 -11 10 -13 6 -1 -9 -3 -32 -4 -102 -1 -219 -16
-233 -31 -13 -13 -15 -12 -15 6 0 14 -5 19 -15 15 -9 -4 -15 0 -15 7 0 8 -23
29 -51 48 -50 34 -79 74 -79 108 1 10 12 -3 25 -29 15 -28 37 -52 56 -62z m89
64 l35 -19 -42 -1 c-36 0 -43 3 -43 20 0 24 5 24 50 0z m64 -4 c-6 -16 -24
-23 -24 -8 0 10 22 33 27 28 2 -2 1 -11 -3 -20z m96 5 c0 -5 -6 -14 -14 -20
-10 -8 -16 -8 -25 2 -6 8 -8 17 -4 20 9 10 43 8 43 -2z m990 -21 c0 -5 -8 -10
-17 -10 -15 0 -16 2 -3 10 19 12 20 12 20 0z m420 -59 c0 -6 -4 -12 -9 -15
-13 -8 -42 4 -35 15 7 12 44 12 44 0z m-625 -29 c-3 -3 -11 0 -18 7 -9 10 -8
11 6 5 10 -3 15 -9 12 -12z m78 -39 c-7 -2 -21 -2 -30 0 -10 3 -4 5 12 5 17 0
24 -2 18 -5z m-1059 -62 c17 -19 17 -19 -3 -14 -11 3 -26 11 -32 19 -19 23 15
18 35 -5z m63 3 c-3 -3 -12 -4 -19 -1 -8 3 -5 6 6 6 11 1 17 -2 13 -5z"/>
<path d="M3777 713 c-12 -11 -8 -23 8 -23 8 0 15 7 15 15 0 16 -12 20 -23 8z"/>
<path d="M3735 690 c3 -5 8 -10 11 -10 2 0 4 5 4 10 0 6 -5 10 -11 10 -5 0 -7
-4 -4 -10z"/>
<path d="M4127 583 c-8 -7 11 -33 23 -33 5 0 6 9 3 20 -5 20 -15 25 -26 13z"/>
<path d="M3383 1504 c-6 -17 15 -37 29 -28 13 9 9 32 -7 38 -9 3 -18 -1 -22
-10z"/>
<path d="M4330 1510 c0 -5 5 -10 10 -10 6 0 10 5 10 10 0 6 -4 10 -10 10 -5 0
-10 -4 -10 -10z"/>
<path d="M2555 1490 c-15 -16 -15 -20 -3 -20 8 0 23 9 33 20 15 16 15 20 3 20
-8 0 -23 -9 -33 -20z"/>
<path d="M3540 1500 c0 -5 5 -10 10 -10 6 0 10 5 10 10 0 6 -4 10 -10 10 -5 0
-10 -4 -10 -10z"/>
<path d="M1650 1481 c0 -30 157 -130 181 -116 13 9 -29 55 -88 96 -40 28 -93
39 -93 20z"/>
<path d="M2510 1481 c0 -6 5 -13 10 -16 6 -3 10 1 10 9 0 9 -4 16 -10 16 -5 0
-10 -4 -10 -9z"/>
<path d="M3434 1450 c-45 -21 -84 -46 -87 -54 -4 -9 -5 -16 -3 -16 10 0 177
90 177 95 1 14 -9 11 -87 -25z"/>
<path d="M2627 1474 c-9 -10 2 -24 18 -24 9 0 12 6 9 15 -6 16 -17 19 -27 9z"/>
<path d="M2700 1466 c0 -9 5 -16 10 -16 6 0 10 4 10 9 0 6 -4 13 -10 16 -5 3
-10 -1 -10 -9z"/>
<path d="M2491 1410 c-34 -42 -40 -77 -15 -87 22 -8 55 12 82 51 27 40 28 49
2 41 -14 -4 -20 -2 -20 9 0 30 -18 25 -49 -14z"/>
<path d="M3236 1435 c-3 -8 -12 -15 -19 -15 -18 0 -41 -26 -29 -34 17 -10 50
6 71 35 21 28 21 29 2 29 -10 0 -21 -7 -25 -15z"/>
<path d="M2644 1429 c-2 -4 3 -12 13 -17 19 -10 43 -6 43 8 0 11 -49 19 -56 9z"/>
<path d="M2883 1385 c-3 -9 -3 -19 1 -22 7 -7 36 16 36 28 0 15 -30 10 -37 -6z"/>
<path d="M3280 1390 c0 -5 7 -10 15 -10 8 0 15 5 15 10 0 6 -7 10 -15 10 -8 0
-15 -4 -15 -10z"/>
<path d="M4146 1381 c-27 -6 -28 -7 -12 -20 15 -12 19 -12 33 2 21 21 16 25
-21 18z"/>
<path d="M3134 1355 c-19 -14 -18 -14 4 -15 13 0 22 6 22 15 0 19 -1 19 -26 0z"/>
<path d="M4322 1347 c-13 -15 -2 -72 14 -71 5 0 13 13 18 27 8 21 6 31 -5 43
-13 13 -18 13 -27 1z"/>
<path d="M4043 1323 c-7 -2 -13 -9 -13 -14 0 -15 36 -10 50 6 10 12 9 15 -6
14 -11 0 -25 -3 -31 -6z"/>
<path d="M2445 1311 c-6 -11 9 -23 19 -14 9 9 7 23 -3 23 -6 0 -12 -4 -16 -9z"/>
<path d="M4665 1310 c3 -5 11 -10 16 -10 6 0 7 5 4 10 -3 6 -11 10 -16 10 -6
0 -7 -4 -4 -10z"/>
<path d="M2902 1294 c1 -9 9 -19 16 -22 9 -3 13 2 10 14 -1 9 -9 19 -16 22 -9
3 -13 -2 -10 -14z"/>
<path d="M4813 1292 c-44 -6 -71 -84 -40 -111 15 -12 27 -5 27 16 0 8 9 27 21
42 26 35 22 57 -8 53z"/>
<path d="M4845 1250 c-3 -5 -1 -10 4 -10 6 0 11 5 11 10 0 6 -2 10 -4 10 -3 0
-8 -4 -11 -10z"/>
<path d="M4708 1223 c7 -3 16 -2 19 1 4 3 -2 6 -13 5 -11 0 -14 -3 -6 -6z"/>
<path d="M2290 1170 c0 -5 5 -10 10 -10 6 0 10 5 10 10 0 6 -4 10 -10 10 -5 0
-10 -4 -10 -10z"/>
<path d="M4806 1154 c-9 -22 3 -32 14 -14 12 19 12 30 1 30 -5 0 -12 -7 -15
-16z"/>
<path d="M2330 1148 l-25 -10 24 -9 c23 -9 51 3 51 22 0 11 -18 10 -50 -3z"/>
<path d="M1805 1140 c-3 -5 -1 -10 4 -10 6 0 11 5 11 10 0 6 -2 10 -4 10 -3 0
-8 -4 -11 -10z"/>
<path d="M3165 1076 c-29 -21 -12 -31 53 -31 50 0 57 2 57 20 0 17 -8 20 -45
23 -28 2 -53 -3 -65 -12z"/>
<path d="M4150 1001 c-7 -15 -7 -21 0 -21 12 0 25 28 17 36 -3 3 -10 -4 -17
-15z"/>
<path d="M3730 979 c0 -5 5 -7 10 -4 6 3 10 8 10 11 0 2 -4 4 -10 4 -5 0 -10
-5 -10 -11z"/>
<path d="M3611 924 c0 -11 3 -14 6 -6 3 7 2 16 -1 19 -3 4 -6 -2 -5 -13z"/>
<path d="M3527 879 c-61 -54 -74 -82 -33 -71 23 7 106 95 106 113 0 18 -17 8
-73 -42z"/>
<path d="M3700 900 c-7 -17 -9 -34 -6 -38 10 -9 36 27 36 50 0 28 -16 21 -30
-12z"/>
<path d="M5257 923 c-3 -5 -1 -17 4 -28 7 -17 8 -17 8 8 1 27 -4 34 -12 20z"/>
<path d="M2290 910 c0 -5 11 -10 25 -10 14 0 25 5 25 10 0 6 -11 10 -25 10
-14 0 -25 -4 -25 -10z"/>
<path d="M2575 910 c-3 -5 1 -10 10 -10 9 0 13 5 10 10 -3 6 -8 10 -10 10 -2
0 -7 -4 -10 -10z"/>
<path d="M5029 883 c-1 -10 -1 -43 0 -73 1 -30 -5 -104 -14 -165 -22 -155 -28
-245 -15 -245 13 0 13 -27 0 -32 -7 -2 -7 -20 -2 -53 5 -28 6 -95 2 -150 -7
-107 -1 -128 34 -123 17 2 22 12 27 53 4 28 12 79 18 115 6 36 11 72 11 79 0
20 -17 2 -23 -24 -3 -15 -5 -13 -6 8 0 15 5 38 13 50 15 24 27 137 15 137 -5
0 -14 10 -20 23 -12 22 -12 22 10 3 l21 -19 0 109 c0 60 4 124 9 142 10 33 -4
93 -35 152 -16 31 -44 39 -45 13z"/>
<path d="M5297 879 c-20 -12 -22 -32 -3 -48 11 -9 15 -5 20 20 7 38 6 40 -17
28z"/>
<path d="M2262 863 c4 -24 85 -50 101 -34 8 8 7 11 -4 11 -9 0 -24 9 -34 20
-23 26 -68 27 -63 3z"/>
<path d="M3435 850 c-3 -5 -2 -10 4 -10 5 0 13 5 16 10 3 6 2 10 -4 10 -5 0
-13 -4 -16 -10z"/>
<path d="M3672 838 c-7 -7 -12 -17 -12 -23 0 -7 -11 -17 -25 -23 -23 -11 -36
-42 -16 -42 11 0 81 79 81 91 0 13 -14 11 -28 -3z"/>
<path d="M2380 821 c0 -6 9 -15 21 -21 18 -10 20 -9 17 7 -3 19 -38 32 -38 14z"/>
<path d="M2236 804 c-8 -21 -8 -24 5 -24 5 0 8 4 5 9 -4 5 -1 11 6 13 8 3 9 6
1 11 -6 4 -14 0 -17 -9z"/>
<path d="M2510 811 c0 -6 5 -13 10 -16 6 -3 10 1 10 9 0 9 -4 16 -10 16 -5 0
-10 -4 -10 -9z"/>
<path d="M5370 771 c0 -11 25 -21 51 -21 23 0 25 15 3 24 -23 9 -54 7 -54 -3z"/>
<path d="M1728 723 c7 -3 16 -2 19 1 4 3 -2 6 -13 5 -11 0 -14 -3 -6 -6z"/>
<path d="M3250 700 c0 -5 5 -10 10 -10 6 0 10 5 10 10 0 6 -4 10 -10 10 -5 0
-10 -4 -10 -10z"/>
<path d="M3270 665 c-7 -8 -10 -18 -7 -21 9 -10 48 7 44 19 -6 18 -23 19 -37
2z"/>
<path d="M4620 664 c0 -3 7 -12 15 -20 16 -17 18 -14 9 10 -6 15 -24 23 -24
10z"/>
<path d="M5591 614 c11 -10 24 -13 42 -9 37 10 24 25 -21 25 -33 0 -35 -1 -21
-16z"/>
<path d="M5635 580 c-3 -5 1 -13 10 -16 22 -9 29 1 11 15 -10 8 -16 9 -21 1z"/>
<path d="M4445 540 c3 -5 11 -10 16 -10 6 0 7 5 4 10 -3 6 -11 10 -16 10 -6 0
-7 -4 -4 -10z"/>
<path d="M4405 500 c-3 -5 -1 -10 4 -10 6 0 11 5 11 10 0 6 -2 10 -4 10 -3 0
-8 -4 -11 -10z"/>
<path d="M4595 460 c3 -5 8 -10 11 -10 2 0 4 5 4 10 0 6 -5 10 -11 10 -5 0 -7
-4 -4 -10z"/>
<path d="M5220 426 c0 -8 5 -18 10 -21 6 -3 10 1 10 9 0 8 -4 18 -10 21 -5 3
-10 -1 -10 -9z"/>
<path d="M1132 391 c-23 -6 -32 -23 -15 -28 9 -3 49 25 42 30 -2 2 -14 1 -27
-2z"/>
<path d="M4390 390 c0 -5 5 -10 10 -10 6 0 10 5 10 10 0 6 -4 10 -10 10 -5 0
-10 -4 -10 -10z"/>
<path d="M4356 350 c-19 -6 -19 -7 -1 -13 20 -8 29 -4 24 11 -2 5 -13 6 -23 2z"/>
<path d="M4335 320 c-3 -5 -1 -10 4 -10 6 0 11 5 11 10 0 6 -2 10 -4 10 -3 0
-8 -4 -11 -10z"/>
<path d="M4385 299 c-11 -17 1 -21 15 -4 8 9 8 15 2 15 -6 0 -14 -5 -17 -11z"/>
<path d="M5290 291 c0 -6 5 -13 10 -16 6 -3 10 1 10 9 0 9 -4 16 -10 16 -5 0
-10 -4 -10 -9z"/>
<path d="M840 230 c0 -5 5 -10 10 -10 6 0 10 5 10 10 0 6 -4 10 -10 10 -5 0
-10 -4 -10 -10z"/>
<path d="M865 200 c-16 -7 -17 -9 -3 -9 9 -1 20 4 23 9 7 11 7 11 -20 0z"/>
<path d="M1042 181 c2 -7 7 -12 11 -12 12 1 9 15 -3 20 -7 2 -11 -2 -8 -8z"/>
<path d="M2395 160 c3 -5 8 -10 11 -10 2 0 4 5 4 10 0 6 -5 10 -11 10 -5 0 -7
-4 -4 -10z"/>
<path d="M2290 130 c0 -5 5 -10 11 -10 5 0 7 5 4 10 -3 6 -8 10 -11 10 -2 0
-4 -4 -4 -10z"/>
<path d="M2385 130 c3 -5 8 -10 11 -10 2 0 4 5 4 10 0 6 -5 10 -11 10 -5 0 -7
-4 -4 -10z"/>
<path d="M2490 50 c0 -5 5 -10 11 -10 5 0 7 5 4 10 -3 6 -8 10 -11 10 -2 0 -4
-4 -4 -10z"/>
<path d="M5180 49 c0 -5 5 -7 10 -4 6 3 10 8 10 11 0 2 -4 4 -10 4 -5 0 -10
-5 -10 -11z"/>
<path d="M5210 50 c0 -5 5 -10 10 -10 6 0 10 5 10 10 0 6 -4 10 -10 10 -5 0
-10 -4 -10 -10z"/>
</g>
</svg>
